<?xml version="1.0" encoding="utf-8"?>
<!-- Generator: Adobe Illustrator 16.0.0, SVG Export Plug-In . SVG Version: 6.00 Build 0)  -->
<!DOCTYPE svg PUBLIC "-//W3C//DTD SVG 1.1//EN" "http://www.w3.org/Graphics/SVG/1.1/DTD/svg11.dtd">
<svg version="1.1" id="Layer_1" xmlns="http://www.w3.org/2000/svg" xmlns:xlink="http://www.w3.org/1999/xlink" x="0px" y="0px"
	 width="64.1px" height="64.1px" viewBox="0 0 64.1 64.1" enable-background="new 0 0 64.1 64.1" xml:space="preserve">
<g>
	<g>
		<path fill="#848484" d="M35.2,40.2C39.7,37.4,44.3,34.7,48.9,31.9C44.3,29.2,39.8,26.4,35.2,23.7c0.6-1,1.198-1.9,1.8-2.9
			c0.2-0.4,0.398-0.4,0.7-0.2c3.5,2.2,7.1,4.4,10.6,6.602c1.3,0.8,2.7,1.698,4,2.5c0.3,0.198,0.4,0.3,0.4,0.698c0,1,0,2,0,3.102
			c0,0.3-0.102,0.398-0.302,0.6c-4.898,3-9.8,6.102-14.698,9.2c-0.2,0.1-0.4,0.2-0.5-0.1C36.6,42.1,35.9,41.2,35.2,40.2z"/>
		<path fill="#848484" d="M15.1,31.9C19.5,34.5,23.8,37.2,28.2,39.8c0.5,0.3,0.6,0.5,0.198,0.9c-0.6,0.8-1.1,1.6-1.6,2.398
			c-0.2,0.2-0.3,0.3-0.5,0.102C21.4,40.1,16.5,37.1,11.5,34c-0.2-0.102-0.3-0.2-0.3-0.5c0-1.102,0-2.2,0-3.2c0-0.3,0.1-0.4,0.3-0.5
			c5-3.1,9.898-6.1,14.898-9.2c0.302-0.2,0.4-0.1,0.5,0.102c0.5,0.8,1,1.698,1.602,2.5c0.3,0.398,0.2,0.5-0.2,0.8
			c-4.2,2.5-8.4,5.1-12.6,7.6C15.5,31.6,15.4,31.8,15.1,31.9z"/>
	</g>
</g>
</svg>
