<?xml version="1.0" encoding="utf-8"?>
<!-- Generator: Adobe Illustrator 16.0.0, SVG Export Plug-In . SVG Version: 6.00 Build 0)  -->
<!DOCTYPE svg PUBLIC "-//W3C//DTD SVG 1.1//EN" "http://www.w3.org/Graphics/SVG/1.1/DTD/svg11.dtd">
<svg version="1.1" id="Layer_1" xmlns="http://www.w3.org/2000/svg" xmlns:xlink="http://www.w3.org/1999/xlink" x="0px" y="0px"
	 width="63.979px" height="63.989px" viewBox="0 0 63.979 63.989" enable-background="new 0 0 63.979 63.989" xml:space="preserve">
<g>
	<path fill="#848484" d="M36.311,39.57c1.703-1.866,3.368-3.692,5.104-5.596c-2.512-0.519-4.928-1.015-7.418-1.526
		c0.607-1.88,1.203-3.729,1.834-5.681c2.275,1.041,4.51,2.063,6.866,3.142c-0.279-2.557-0.548-5.018-0.82-7.514
		c2.011,0,3.979,0,5.99,0c-0.272,2.488-0.543,4.941-0.826,7.515c2.327-1.066,4.562-2.088,6.865-3.143
		c0.621,1.914,1.222,3.763,1.843,5.679c-2.468,0.508-4.896,1.01-7.421,1.528c1.735,1.903,3.399,3.729,5.104,5.595
		c-1.602,1.161-3.164,2.297-4.8,3.482c-1.242-2.162-2.47-4.297-3.761-6.543c-1.271,2.216-2.496,4.347-3.758,6.543
		C39.498,41.879,37.923,40.739,36.311,39.57z"/>
	<path fill="#848484" d="M26.798,13.579c1.655,0.774,3.234,1.512,4.889,2.286c-5.588,11.63-11.157,23.221-16.762,34.885
		c-1.651-0.766-3.28-1.52-4.931-2.283C15.603,36.821,21.188,25.227,26.798,13.579z"/>
</g>
</svg>
