<?xml version="1.0" encoding="utf-8"?>
<!-- Generator: Adobe Illustrator 16.0.0, SVG Export Plug-In . SVG Version: 6.00 Build 0)  -->
<!DOCTYPE svg PUBLIC "-//W3C//DTD SVG 1.1//EN" "http://www.w3.org/Graphics/SVG/1.1/DTD/svg11.dtd">
<svg version="1.1" id="Layer_1" xmlns="http://www.w3.org/2000/svg" xmlns:xlink="http://www.w3.org/1999/xlink" x="0px" y="0px"
	 width="64px" height="64px" viewBox="0 0 64 64" enable-background="new 0 0 64 64" xml:space="preserve">
<g>
	<g>
		<path fill="#848484" d="M45.9,31c2.2-0.9,4.4-1.7,6.601-2.601c0.5-0.199,0.6-0.1,0.7,0.4c0.3,1,0.699,2.1,1,3.1
			c0.1,0.4,0.1,0.5-0.301,0.7C51.7,33.2,49.4,33.8,47.2,34.3c-0.101,0-0.2,0.1-0.4,0.1c1,1.301,2,2.5,3,3.7
			c0.6,0.7,1.2,1.4,1.7,2.101c0.2,0.199,0.2,0.3,0,0.5c-1,0.699-2,1.399-3,2.1c-0.4,0.3-0.4,0-0.5-0.2C46.8,40.7,45.6,38.9,44.4,37
			C44.3,36.8,44.2,36.7,44,36.4c-0.3,0.5-0.601,1-0.9,1.5c-1,1.601-2,3.101-3,4.7C39.9,43,39.7,43,39.4,42.7
			C38.5,42,37.6,41.4,36.7,40.8c-0.4-0.2-0.4-0.4-0.101-0.7c1.5-1.899,3.101-3.7,4.601-5.6c-0.101-0.2-0.2-0.2-0.4-0.2
			c-2.2-0.6-4.5-1.2-6.7-1.7C33.7,32.5,33.6,32.4,33.7,32c0.399-1.101,0.699-2.101,1-3.2c0.1-0.4,0.3-0.4,0.6-0.3
			c2.3,0.899,4.5,1.8,6.8,2.7c-0.1-1.7-0.2-3.301-0.3-5c-0.1-0.801-0.1-1.7-0.2-2.5c0-0.301,0-0.4,0.4-0.4c1.2,0,2.399,0,3.6,0
			c0.4,0,0.5,0.1,0.4,0.5c-0.101,1.8-0.2,3.6-0.3,5.4c0,0.5-0.101,1-0.101,1.5C45.7,30.8,45.6,31,45.9,31z"/>
		<path fill="#848484" d="M13.2,50.8c-0.4-0.2-0.801-0.3-1.101-0.5c-0.6-0.3-1.3-0.6-1.899-0.9c-0.4-0.1-0.4-0.3-0.2-0.6
			c1.8-3.7,3.5-7.3,5.3-11c3.7-7.7,7.4-15.4,11.1-23.1c0.2-0.5,0.4-0.601,0.9-0.301c0.8,0.4,1.6,0.801,2.4,1.101
			c0.399,0.2,0.5,0.3,0.3,0.8c-2.101,4.3-4.2,8.6-6.3,13c-3.4,7-6.801,14.1-10.2,21.1C13.5,50.5,13.5,50.8,13.2,50.8z"/>
		<path fill="#848484" d="M45.9,31C45.5,31,45.7,30.8,45.7,30.6C45.8,30.7,45.7,31,45.9,31z"/>
	</g>
</g>
</svg>
