<?xml version="1.0" encoding="utf-8"?>
<!-- Generator: Adobe Illustrator 16.0.0, SVG Export Plug-In . SVG Version: 6.00 Build 0)  -->
<!DOCTYPE svg PUBLIC "-//W3C//DTD SVG 1.1//EN" "http://www.w3.org/Graphics/SVG/1.1/DTD/svg11.dtd">
<svg version="1.1" id="Layer_1" xmlns="http://www.w3.org/2000/svg" xmlns:xlink="http://www.w3.org/1999/xlink" x="0px" y="0px"
	 width="64.1px" height="64.1px" viewBox="0 0 64.1 64.1" style="enable-background:new 0 0 64.1 64.1;" xml:space="preserve">
<g>
	<g>
		<path style="fill:#848484;" d="M45.9,38c2.2-0.9,4.4-1.7,6.6-2.6c0.5-0.2,0.6-0.1,0.7,0.4c0.3,1,0.7,2.1,1,3.1
			c0.1,0.4,0.1,0.5-0.3,0.7c-2.2,0.6-4.5,1.2-6.7,1.7c-0.1,0-0.2,0.1-0.4,0.1c1,1.3,2,2.5,3,3.7c0.6,0.7,1.2,1.4,1.7,2.1
			c0.2,0.2,0.2,0.3,0,0.5c-1,0.7-2,1.4-3,2.1c-0.4,0.3-0.4,0-0.5-0.2c-1.2-1.9-2.4-3.7-3.6-5.6c-0.1-0.2-0.2-0.3-0.4-0.6
			c-0.3,0.5-0.6,1-0.9,1.5c-1,1.6-2,3.1-3,4.7c-0.2,0.4-0.4,0.4-0.7,0.1c-0.9-0.7-1.8-1.3-2.7-1.9c-0.4-0.2-0.4-0.4-0.1-0.7
			c1.5-1.9,3.1-3.7,4.6-5.6c-0.1-0.2-0.2-0.2-0.4-0.2c-2.2-0.6-4.5-1.2-6.7-1.7c-0.4-0.1-0.5-0.2-0.4-0.6c0.4-1.1,0.7-2.1,1-3.2
			c0.1-0.4,0.3-0.4,0.6-0.3c2.3,0.9,4.5,1.8,6.8,2.7c-0.1-1.7-0.2-3.3-0.3-5c-0.1-0.8-0.1-1.7-0.2-2.5c0-0.3,0-0.4,0.4-0.4
			c1.2,0,2.4,0,3.6,0c0.4,0,0.5,0.1,0.4,0.5c-0.1,1.8-0.2,3.6-0.3,5.4c0,0.5-0.1,1-0.1,1.5C45.7,37.8,45.6,38,45.9,38z"/>
		<path style="fill:#848484;" d="M13.2,57.8c-0.4-0.2-0.8-0.3-1.1-0.5c-0.6-0.3-1.3-0.6-1.9-0.9c-0.4-0.1-0.4-0.3-0.2-0.6
			c1.8-3.7,3.5-7.3,5.3-11c3.7-7.7,7.4-15.4,11.1-23.1c0.2-0.5,0.4-0.6,0.9-0.3c0.8,0.4,1.6,0.8,2.4,1.1c0.4,0.2,0.5,0.3,0.3,0.8
			c-2.1,4.3-4.2,8.6-6.3,13c-3.4,7-6.8,14.1-10.2,21.1C13.5,57.5,13.5,57.8,13.2,57.8z"/>
		<path style="fill:#848484;" d="M45.9,38c-0.4,0-0.2-0.2-0.2-0.4C45.8,37.7,45.7,38,45.9,38z"/>
	</g>
</g>
</svg>
