<?xml version="1.0" encoding="utf-8"?>
<!-- Generator: Adobe Illustrator 16.0.0, SVG Export Plug-In . SVG Version: 6.00 Build 0)  -->
<!DOCTYPE svg PUBLIC "-//W3C//DTD SVG 1.1//EN" "http://www.w3.org/Graphics/SVG/1.1/DTD/svg11.dtd">
<svg version="1.1" id="Layer_1" xmlns="http://www.w3.org/2000/svg" xmlns:xlink="http://www.w3.org/1999/xlink" x="0px" y="0px"
	 width="64px" height="64px" viewBox="0 0 64 64" enable-background="new 0 0 64 64" xml:space="preserve">
<g>
	<path fill="#848484" d="M13.185,24.435c0.941-1.533,1.853-3.018,2.788-4.541c0.204,0.115,0.383,0.206,0.553,0.312
		c4.866,3.009,9.729,6.023,14.602,9.022c0.357,0.22,0.521,0.441,0.509,0.878c-0.034,1.186,0.005,2.374-0.027,3.56
		c-0.006,0.223-0.15,0.529-0.329,0.643c-5.011,3.129-10.035,6.239-15.058,9.353c-0.051,0.032-0.11,0.05-0.216,0.097
		c-0.932-1.418-1.865-2.835-2.824-4.294c4.332-2.555,8.607-5.075,12.946-7.634C21.778,29.343,17.503,26.901,13.185,24.435z"/>
	<rect x="33.116" y="46.119" fill="#848484" width="20.542" height="5.487"/>
</g>
</svg>
