<?xml version="1.0" encoding="utf-8"?>
<!-- Generator: Adobe Illustrator 23.0.2, SVG Export Plug-In . SVG Version: 6.00 Build 0)  -->
<svg version="1.1" id="Layer_1" xmlns="http://www.w3.org/2000/svg" xmlns:xlink="http://www.w3.org/1999/xlink" x="0px" y="0px"
	 viewBox="0 0 16 16" style="enable-background:new 0 0 16 16;" xml:space="preserve">
<style type="text/css">
	.st0{fill:#424242;}
</style>
<g>
	<path class="st0" d="M3.5,9.3999996l0.3,0.5c0.0206823,0.0209236,0.0413647,0.0418482,0.062047,0.0627728
		C4.0080314,9.8751812,4.1540155,9.78759,4.3000002,9.6999998c0.5-0.3999996,1.0999999-0.6999998,1.5999999-1S7,8,7.5,7.6999998
		V7.6000004V7V6.5c0-0.1000004,0-0.1000004-0.0999999-0.1999998C7.1999998,6.1999998,6.9000001,6,6.5,5.6999998
		C6,5.3999996,5.4000001,5,4.8000002,4.6000004l-0.9000001-0.5C3.8839734,4.0826941,3.8679464,4.0653868,3.8519197,4.0480804
		C3.8346131,4.0653868,3.8173065,4.0826941,3.8,4.1000004l-0.2,0.2999992L3.2,5v0.1000004
		C3.8,5.3999996,4.3000002,5.6999998,4.8000002,6s1,0.6000004,1.5,0.8999996
		c0.0211353,0.0211353,0.0422702,0.0422707,0.0634055,0.063406C6.3422704,6.9756041,6.3211355,6.9878016,6.3000002,7l-1.5,0.8999996
		l-1.5999999,1V9L3.5,9.3999996z"/>
	<polygon class="st0" points="12.8000002,10.8999996 7.9000001,10.8999996 7.9000001,10.8999996 7.9000001,11 7.9000001,11.8999996 
		7.9000001,11.8999996 7.9000001,11.8999996 12.8000002,11.8999996 12.8999996,11.8999996 12.8999996,11.8999996 12.8999996,11 
		12.8999996,10.8999996 	"/>
</g>
<path class="st0" d="M4.2515168,10.12743"/>
<path class="st0" d="M4.7597523,4.0642729"/>
</svg>
