<?xml version="1.0" encoding="utf-8"?>
<!-- Generator: Adobe Illustrator 16.0.0, SVG Export Plug-In . SVG Version: 6.00 Build 0)  -->
<!DOCTYPE svg PUBLIC "-//W3C//DTD SVG 1.1//EN" "http://www.w3.org/Graphics/SVG/1.1/DTD/svg11.dtd">
<svg version="1.1" id="Layer_1" xmlns="http://www.w3.org/2000/svg" xmlns:xlink="http://www.w3.org/1999/xlink" x="0px" y="0px"
	 width="64.1px" height="64.1px" viewBox="0 0 64.1 64.1" style="enable-background:new 0 0 64.1 64.1;" xml:space="preserve">
<g>
	<g>
		<path style="fill:#656565;" d="M10.9,36.5c4.7-2.9,9.4-5.8,14.1-8.7c-0.3-0.2-0.5-0.3-0.7-0.5c-4.3-2.6-8.5-5.3-12.8-7.9
			c-0.5-0.3-0.6-0.5-0.2-1s0.7-1,1-1.6c0.2-0.3,0.3-0.4,0.6-0.2c4.9,3,9.8,6.1,14.7,9.1c0.2,0.2,0.3,0.3,0.3,0.6c0,0.9,0,1.8,0,2.7
			c0,0.3-0.1,0.4-0.3,0.6c-4.8,3-9.7,6-14.5,9c-0.3,0.2-0.4,0.2-0.6-0.1C11.9,38,11.4,37.3,10.9,36.5z"/>
		<path style="fill:#656565;" d="M43.3,47.6c-3.1,0-6.3,0-9.4,0c-0.4,0-0.6-0.1-0.5-0.5c0-0.6,0-1.3,0-1.9c0-0.5,0.1-0.6,0.6-0.6
			c2.4,0,4.8,0,7.2,0c3.9,0,7.8,0,11.7,0c0.5,0,0.6,0.1,0.6,0.6c0,0.6,0,1.3,0,1.9c0,0.4-0.1,0.5-0.5,0.5
			C49.7,47.6,46.5,47.6,43.3,47.6z"/>
	</g>
</g>
</svg>
