<?xml version="1.0" encoding="utf-8"?>
<!-- Generator: Adobe Illustrator 16.0.0, SVG Export Plug-In . SVG Version: 6.00 Build 0)  -->
<!DOCTYPE svg PUBLIC "-//W3C//DTD SVG 1.1//EN" "http://www.w3.org/Graphics/SVG/1.1/DTD/svg11.dtd">
<svg version="1.1" id="Layer_1" xmlns="http://www.w3.org/2000/svg" xmlns:xlink="http://www.w3.org/1999/xlink" x="0px" y="0px"
	 width="64px" height="64px" viewBox="0 0 64 64" style="enable-background:new 0 0 64 64;" xml:space="preserve">
<g>
	<g>
		<path style="fill:#848484;" d="M10.6,39.7c4.5-2.8,9.1-5.5,13.7-8.3c-4.6-2.8-9.1-5.5-13.7-8.2c0.6-1,1.2-1.9,1.8-2.9
			c0.2-0.4,0.4-0.4,0.7-0.2c3.5,2.2,7.1,4.4,10.6,6.6c1.3,0.8,2.7,1.7,4,2.5c0.3,0.2,0.4,0.4,0.4,0.7c0,1,0,2,0,3
			c0,0.3-0.1,0.5-0.4,0.7c-4.9,3-9.7,6-14.6,9.1c-0.3,0.2-0.4,0.2-0.6-0.1C12,41.6,11.3,40.6,10.6,39.7z"/>
		<path style="fill:#848484;" d="M43.4,47.5c3.1,0,6.3,0,9.4,0c0.5,0,0.6,0.1,0.6,0.6c0,0.9,0,1.7,0,2.6c0,0.4-0.1,0.5-0.5,0.5
			c-2.4,0-4.7,0-7.1,0c-4,0-7.9,0-11.9,0c-0.5,0-0.6-0.1-0.6-0.6c0-0.9,0-1.7,0-2.6c0-0.4,0.1-0.5,0.5-0.5
			C37,47.5,40.2,47.5,43.4,47.5z"/>
	</g>
</g>
</svg>
