<?xml version="1.0" encoding="utf-8"?>
<!-- Generator: Adobe Illustrator 16.0.0, SVG Export Plug-In . SVG Version: 6.00 Build 0)  -->
<!DOCTYPE svg PUBLIC "-//W3C//DTD SVG 1.1//EN" "http://www.w3.org/Graphics/SVG/1.1/DTD/svg11.dtd">
<svg version="1.1" id="Layer_1" xmlns="http://www.w3.org/2000/svg" xmlns:xlink="http://www.w3.org/1999/xlink" x="0px" y="0px"
	 width="64.1px" height="64.1px" viewBox="0 0 64.1 64.1" style="enable-background:new 0 0 64.1 64.1;" xml:space="preserve">
<g>
	<path style="fill:#848484;" d="M46.4,36.2c-0.9-0.2-1.6-0.4-2.3-0.7c-1.5-0.7-2.3-1.9-2.5-3.5c-0.1-1.6,0.2-3.2,0.3-4.7
		c0.1-1.4,0.3-2.8,0.4-4.2c0.1-1.5-0.4-2.3-1.9-2.8c-0.6-0.3-1.3-0.3-2-0.3c-0.4,0-0.5-0.1-0.5-0.5c0-0.8,0-1.7,0-2.5
		c0-0.3,0-0.4,0.3-0.4c1.7,0,3.4,0.2,5,0.8c2.4,0.9,3.6,2.8,3.3,5.3c-0.2,2.3-0.5,4.7-0.8,7c0,0.4-0.1,0.7-0.1,1.1
		c0,1.6,0.7,2.6,2.1,3.1c1,0.4,2.1,0.5,3.3,0.5c0.4,0,0.5,0.1,0.5,0.5c0,0.9,0,1.8,0,2.7c0,0.4-0.1,0.5-0.5,0.5
		c-0.8,0-1.7,0.1-2.5,0.3c-2.2,0.5-3.1,1.7-2.9,3.9c0.2,2.1,0.4,4.1,0.7,6.1c0.1,0.9,0.2,1.8,0,2.7c-0.3,1.7-1.2,2.8-2.7,3.6
		c-1.8,0.8-3.7,1-5.6,1c-0.3,0-0.3-0.1-0.3-0.3c0-0.9,0-1.8,0-2.6c0-0.3,0.1-0.4,0.4-0.4c0.7,0,1.5-0.1,2.2-0.3
		c1.5-0.4,2-1.3,1.9-2.8c-0.3-2.6-0.5-5.2-0.7-7.8c-0.2-2.7,0.9-4.2,3.6-4.9C45.5,36.4,45.9,36.3,46.4,36.2z"/>
	<path style="fill:#848484;" d="M18.2,36.2c0.4,0.1,0.6,0.1,0.8,0.2c2.7,0.7,3.9,2.2,3.7,5c-0.2,2.4-0.4,4.9-0.7,7.3
		c-0.3,2.3,0.4,3.2,2.7,3.6c0.1,0,0.3,0,0.4,0c1.3,0.1,1.3,0.1,1.3,1.4c0,0.3,0,0.5,0,0.8c0,1.2,0,1.2-1.1,1.1
		c-1.4-0.1-2.8-0.2-4.1-0.7c-2.5-0.9-3.7-2.8-3.5-5.4c0.2-2.3,0.5-4.6,0.8-6.9c0.3-2.7-0.7-4-3.4-4.4c-0.7-0.1-1.3-0.2-2-0.1
		c-0.4,0-0.5-0.1-0.5-0.5c0-0.9,0-1.8,0-2.7c0-0.4,0.1-0.5,0.5-0.5c1.1,0,2.2-0.1,3.3-0.5c1.5-0.5,2.2-1.4,2.1-3
		c-0.1-1.9-0.4-3.8-0.6-5.8c-0.1-1.1-0.3-2.2-0.2-3.3c0.1-2.1,1.2-3.5,3.1-4.3c1.7-0.7,3.5-0.8,5.3-0.9c0.3,0,0.3,0.1,0.3,0.4
		c0,0.8,0,1.7,0,2.5c0,0.3-0.1,0.5-0.5,0.5c-0.7,0-1.5,0.1-2.2,0.3c-1.5,0.5-2.1,1.3-1.9,2.9c0.3,2.5,0.5,4.9,0.7,7.4
		c0.2,3.2-0.9,4.7-4,5.5C18.5,36.1,18.4,36.1,18.2,36.2z"/>
</g>
</svg>
