<?xml version="1.0" encoding="utf-8"?>
<!-- Generator: Adobe Illustrator 23.0.2, SVG Export Plug-In . SVG Version: 6.00 Build 0)  -->
<svg version="1.1" id="Layer_1" xmlns="http://www.w3.org/2000/svg" xmlns:xlink="http://www.w3.org/1999/xlink" x="0px" y="0px"
	 viewBox="0 0 16 16" style="enable-background:new 0 0 16 16;" xml:space="preserve">
<style type="text/css">
	.st0{fill:#424242;}
</style>
<g>
	<g>
		<path class="st0" d="M6.5999999,3.7c-0.9000001,0-1.5,0.2-1.4000001,0.8l0.1999998,2C5.5,7.5,5,7.9000001,4.0999999,8
			C5,8.1000004,5.4000001,8.5,5.3000002,9.5l-0.1999998,2c-0.0999999,0.6000004,0.5999999,0.8000002,1.4000001,0.8000002v0.8000002
			c-1.5,0-2.7-0.3999996-2.5-1.6999998L4.2000003,9.500001C4.4000001,8.8000002,4,8.3999996,2.5,8.3999996V7.5999999
			c1.5,0,1.9000001-0.4000001,1.8000002-1.0999999L4.0999999,4.5999999c-0.2-1.3,1-1.7,2.5-1.7V3.7z"/>
		<path class="st0" d="M11.8999996,4.5999999L11.6999998,6.5C11.5999994,7.1999998,12.0999994,7.5999999,13.5,7.5999999v0.7999997
			c-1.3999996,0-1.8999996,0.3999996-1.8000002,1.1000004l0.1999998,1.8999996c0.1999998,1.3000002-1,1.6999998-2.5,1.6999998
			v-0.8000002c0.8999996,0,1.5-0.1999998,1.3999996-0.8000002l-0.1999998-2C10.5,8.5,11,8.1000004,12,8
			c-1-0.0999999-1.5-0.5-1.3000002-1.5l0.1999998-2C11,3.9000001,10.2999992,3.7,9.5,3.7v-0.8
			C10.8999996,2.9000001,12.1000004,3.3,11.8999996,4.5999999z"/>
	</g>
</g>
</svg>
