<?xml version="1.0" encoding="utf-8"?>
<!-- Generator: Adobe Illustrator 16.0.0, SVG Export Plug-In . SVG Version: 6.00 Build 0)  -->
<!DOCTYPE svg PUBLIC "-//W3C//DTD SVG 1.1//EN" "http://www.w3.org/Graphics/SVG/1.1/DTD/svg11.dtd">
<svg version="1.1" id="Layer_1" xmlns="http://www.w3.org/2000/svg" xmlns:xlink="http://www.w3.org/1999/xlink" x="0px" y="0px"
	 width="64.1px" height="64.1px" viewBox="0 0 64.1 64.1" enable-background="new 0 0 64.1 64.1" xml:space="preserve">
<g>
	<path fill="#848484" d="M46.4,35.2c-0.899-0.2-1.6-0.4-2.3-0.7c-1.5-0.7-2.3-1.9-2.5-3.5c-0.1-1.601,0.2-3.2,0.3-4.7
		c0.101-1.4,0.301-2.8,0.4-4.2c0.1-1.5-0.4-2.3-1.9-2.8c-0.6-0.3-1.3-0.3-2-0.3C38,19,37.9,18.9,37.9,18.5c0-0.8,0-1.7,0-2.5
		c0-0.3,0-0.4,0.301-0.4c1.699,0,3.399,0.2,5,0.8c2.399,0.9,3.6,2.801,3.3,5.301c-0.2,2.3-0.5,4.699-0.8,7
		c0,0.399-0.101,0.699-0.101,1.1c0,1.6,0.7,2.6,2.101,3.1c1,0.4,2.1,0.5,3.3,0.5c0.399,0,0.5,0.101,0.5,0.5c0,0.9,0,1.801,0,2.7
		c0,0.4-0.101,0.5-0.5,0.5c-0.8,0-1.7,0.101-2.5,0.3c-2.2,0.5-3.101,1.7-2.9,3.9c0.2,2.1,0.4,4.1,0.7,6.1c0.1,0.9,0.2,1.801,0,2.7
		c-0.3,1.7-1.2,2.8-2.7,3.601c-1.8,0.8-3.7,1-5.6,1c-0.3,0-0.3-0.101-0.3-0.301c0-0.899,0-1.8,0-2.6c0-0.3,0.1-0.4,0.399-0.4
		c0.7,0,1.5-0.1,2.2-0.3c1.5-0.399,2-1.3,1.9-2.8c-0.301-2.6-0.5-5.2-0.7-7.8c-0.2-2.7,0.899-4.2,3.6-4.9
		C45.5,35.4,45.9,35.3,46.4,35.2z"/>
	<path fill="#848484" d="M18.2,35.2c0.399,0.1,0.6,0.1,0.8,0.199c2.7,0.7,3.899,2.2,3.7,5c-0.2,2.4-0.4,4.9-0.7,7.301
		C21.7,50,22.4,50.9,24.7,51.3c0.1,0,0.3,0,0.399,0c1.3,0.1,1.3,0.1,1.3,1.4c0,0.3,0,0.5,0,0.8c0,1.2,0,1.2-1.1,1.1
		c-1.4-0.1-2.8-0.2-4.1-0.7C18.7,53,17.5,51.1,17.7,48.5c0.199-2.3,0.5-4.601,0.8-6.9c0.3-2.7-0.7-4-3.4-4.399
		c-0.7-0.101-1.3-0.2-2-0.101c-0.399,0-0.5-0.1-0.5-0.5c0-0.899,0-1.8,0-2.7c0-0.399,0.101-0.5,0.5-0.5c1.101,0,2.2-0.1,3.3-0.5
		c1.5-0.5,2.2-1.399,2.101-3C18.4,28,18.1,26.1,17.9,24.1c-0.1-1.1-0.3-2.2-0.199-3.3c0.1-2.1,1.199-3.5,3.1-4.3
		c1.7-0.7,3.5-0.8,5.3-0.9c0.3,0,0.3,0.101,0.3,0.4c0,0.8,0,1.7,0,2.5c0,0.3-0.1,0.5-0.5,0.5c-0.699,0-1.5,0.1-2.199,0.3
		c-1.5,0.5-2.101,1.3-1.9,2.9c0.3,2.5,0.5,4.899,0.7,7.399c0.2,3.2-0.9,4.7-4,5.5C18.5,35.1,18.4,35.1,18.2,35.2z"/>
</g>
</svg>
