<?xml version="1.0" encoding="utf-8"?>
<!-- Generator: Adobe Illustrator 16.0.0, SVG Export Plug-In . SVG Version: 6.00 Build 0)  -->
<!DOCTYPE svg PUBLIC "-//W3C//DTD SVG 1.1//EN" "http://www.w3.org/Graphics/SVG/1.1/DTD/svg11.dtd">
<svg version="1.1" id="Layer_1" xmlns="http://www.w3.org/2000/svg" xmlns:xlink="http://www.w3.org/1999/xlink" x="0px" y="0px"
	 width="64.1px" height="64.1px" viewBox="0 0 64.1 64.1" style="enable-background:new 0 0 64.1 64.1;" xml:space="preserve">
<g>
	<g>
		<path style="fill:#656565;" d="M46.2,32.2c-0.6-0.2-1.1-0.3-1.6-0.5c-1.5-0.6-2.3-1.8-2.4-3.4c-0.1-1.8,0.3-3.6,0.4-5.3
			c0.1-1.4,0.3-2.8,0.4-4.2c0.2-1.9-0.8-2.9-3.1-3.2c-0.5-0.1-1-0.1-1.5-0.1c-0.3,0-0.5,0-0.4-0.4c0-0.6,0-1.3,0-1.9
			c0-0.2,0-0.4,0.3-0.4c1.4,0,2.8,0.2,4.1,0.6c2.9,1,4,2.9,3.6,6c-0.3,2.4-0.6,4.7-0.8,7.1c0,0.3,0,0.5,0,0.8c0,1.5,0.6,2.5,2.1,3
			c1.1,0.4,2.2,0.5,3.4,0.5c0.5,0,0.7,0.1,0.6,0.6c-0.1,0.7,0.2,1.6-0.1,2c-0.3,0.4-1.3,0.2-2,0.2c-0.8,0.1-1.5,0.2-2.2,0.6
			c-1.2,0.5-1.8,1.4-1.8,2.7c0,1.6,0.3,3.1,0.5,4.7c0.1,1.4,0.4,2.8,0.4,4.2c0.1,2.5-0.9,4.1-3.3,5c-1.5,0.6-3,0.7-4.5,0.8
			c-0.3,0-0.4-0.1-0.4-0.3c0-0.6,0-1.3,0-1.9c0-0.3,0.1-0.4,0.4-0.4c0.9,0,1.7-0.1,2.6-0.4c1.5-0.5,2.1-1.4,2-2.9
			c-0.2-2.6-0.5-5.2-0.8-7.8c-0.1-0.7-0.1-1.4,0-2.1c0.1-1.5,0.9-2.5,2.2-3C45,32.4,45.6,32.3,46.2,32.2z"/>
		<path style="fill:#656565;" d="M18.4,32.2c2.3,0.6,3.3,1.5,3.6,3.3c0.1,0.7,0.1,1.5,0,2.2c-0.3,2.6-0.6,5.2-0.8,7.8
			c-0.2,1.9,0.8,3,3,3.2c0.5,0.1,1,0.1,1.6,0.1c0.3,0,0.4,0.1,0.4,0.4c0,0.6,0,1.2,0,1.9c0,0.3,0,0.4-0.4,0.4
			c-1.3,0-2.5-0.1-3.7-0.5c-3.2-0.9-4.5-3-4-6.3c0.3-2.3,0.6-4.6,0.8-6.9c0.3-2.8-0.7-3.9-3.6-4.2c-0.7-0.1-1.3-0.1-2-0.1
			c-0.4,0-0.5-0.1-0.5-0.5c0-0.5,0-1,0-1.6c0-0.5,0.1-0.7,0.7-0.7c1,0,2.1-0.1,3.1-0.4c1.8-0.5,2.5-1.4,2.4-3.2
			c-0.2-2.2-0.5-4.4-0.7-6.6c-0.1-0.9-0.3-1.9-0.2-2.8c0.1-1.7,0.9-3.1,2.4-3.9c1.7-1,3.6-1.1,5.5-1.2c0.3,0,0.3,0.2,0.3,0.4
			c0,0.6,0,1.3,0,1.9c0,0.4-0.1,0.4-0.4,0.4c-0.9,0-1.7,0.1-2.5,0.4c-1.6,0.5-2.2,1.4-2,3c0.3,2.6,0.5,5.2,0.8,7.8
			c0.1,0.6,0.1,1.3,0,1.9c-0.2,1.6-0.9,2.7-2.4,3.2C19.2,31.9,18.9,32,18.4,32.2z"/>
	</g>
</g>
</svg>
