<?xml version="1.0" encoding="utf-8"?>
<!-- Generator: Adobe Illustrator 16.0.0, SVG Export Plug-In . SVG Version: 6.00 Build 0)  -->
<!DOCTYPE svg PUBLIC "-//W3C//DTD SVG 1.1//EN" "http://www.w3.org/Graphics/SVG/1.1/DTD/svg11.dtd">
<svg version="1.1" id="Layer_1" xmlns="http://www.w3.org/2000/svg" xmlns:xlink="http://www.w3.org/1999/xlink" x="0px" y="0px"
	 width="64px" height="64px" viewBox="0 0 64 64" style="enable-background:new 0 0 64 64;" xml:space="preserve">
<path style="fill:#838383;" d="M51.4,20.1c-0.6-0.6-1.2-1.1-1.8-1.6c-0.5-0.4-0.9-0.8-1.4-1.2c-0.7-0.6-1.4-1.2-2.1-1.8
	c-0.4-0.4-0.9-0.9-1.4-1.3c-0.7-0.6-1.5-1.3-2.2-1.9c-0.4-0.4-0.9-0.8-1.3-1.2c-0.7-0.7-1.5-1.3-2.2-2c-0.4-0.3-0.7-0.5-1.3-0.5
	c-6.9,0-13.8,0-20.7,0c-0.7,0-1.4,0-2.1,0.2c-0.8,0.3-1.5,0.7-1.9,1.4c-0.2,0.3-0.3,0.8-0.4,1.2c0,0.2,0,0.4,0,0.6s0,0.3,0,0.4
	c0,13.1,0,26.2,0,39.3c0,0.2,0,0.3,0,0.4c0,0.2,0,0.4,0,0.6c-0.1,0.1,0.1,0.2,0.1,0.4c0,0.4,0.3,0.8,0.5,1.1
	c0.6,0.8,1.4,1.3,2.4,1.4c0.2,0,0.3,0,0.4,0c0.1,0,0.2,0,0.3,0c10.5,0,20.9,0,31.4,0c0.1,0,0.2,0,0.3,0c0.2-0.1,0.3-0.1,0.5-0.2
	c0.4-0.1,0.8-0.2,1.2-0.4c0.6-0.3,1.1-0.7,1.4-1.3c0.3-0.4,0.3-0.9,0.5-1.4c0-0.2,0-0.3,0-0.4c0,0,0-0.1,0-0.2c0-10.4,0-20.8,0-31.2
	C51.6,20.4,51.5,20.2,51.4,20.1z M48.7,52.2c0,0.3-0.1,0.3-0.3,0.3c-10.8,0-21.6,0-32.4,0c-0.3,0-0.4-0.1-0.4-0.4c0-6.5,0-13.3,0-20
	s0-13.5,0-20.2c0-0.3,0.1-0.4,0.4-0.4c6.8,0,13.6,0,20.4,0c0.3,0,0.3,0.1,0.3,0.3c0,3.8,0,7.5,0,11.3c0,0.3,0.1,0.4,0.4,0.4
	c3.8,0,7.5,0,11.3,0c0.3,0,0.3,0.1,0.3,0.3C48.7,33.3,48.7,42.8,48.7,52.2z"/>
</svg>
