<?xml version="1.0" encoding="utf-8"?>
<!-- Generator: Adobe Illustrator 16.0.0, SVG Export Plug-In . SVG Version: 6.00 Build 0)  -->
<!DOCTYPE svg PUBLIC "-//W3C//DTD SVG 1.1//EN" "http://www.w3.org/Graphics/SVG/1.1/DTD/svg11.dtd">
<svg version="1.1" id="Layer_1" xmlns="http://www.w3.org/2000/svg" xmlns:xlink="http://www.w3.org/1999/xlink" x="0px" y="0px"
	 width="64px" height="64px" viewBox="0 0 64 64" style="enable-background:new 0 0 64 64;" xml:space="preserve">
<path id="canvas" style="fill:#F6F6F6;fill-opacity:0;" d="M64,64H0V0h64V64z"/>
<path id="outline" style="fill:#F6F6F6;fill-opacity:0;" d="M16,60c-3.9,0-8-2.8-8-8V12c0-5.2,4.1-8,8-8h24.2L56,18.2V52
	c0,3.9-2.8,8-8,8H16z"/>
<path id="iconBg" style="fill:#848484;" d="M38.6,8H15.9c0,0-3.9,0-3.9,4c0,3.2,0,29.8,0,40c0,4,3.9,4,3.9,4s28,0,32,0s4.1-4,4.1-4
	V20L38.6,8z M48,52H16V12h20v12h12V52z"/>
</svg>
