<?xml version="1.0" encoding="utf-8"?>
<!-- Generator: Adobe Illustrator 16.0.0, SVG Export Plug-In . SVG Version: 6.00 Build 0)  -->
<!DOCTYPE svg PUBLIC "-//W3C//DTD SVG 1.1//EN" "http://www.w3.org/Graphics/SVG/1.1/DTD/svg11.dtd">
<svg version="1.1" id="Layer_1" xmlns="http://www.w3.org/2000/svg" xmlns:xlink="http://www.w3.org/1999/xlink" x="0px" y="0px"
	 width="64px" height="64px" viewBox="0 0 64 64" enable-background="new 0 0 64 64" xml:space="preserve">
<g>
	<path fill="#848484" d="M16.352,60.292c-0.125,0-0.294-0.071-0.386-0.162c-0.67-0.658-1.334-1.32-2-1.983
		c-0.544-0.542-1.088-1.084-1.634-1.624c-0.142-0.14-0.196-0.281-0.195-0.508c0.005-6.953,0.005-13.904,0.005-20.856V32.17
		c0-7.937,0-15.873-0.005-23.81c0-0.225,0.056-0.367,0.198-0.508c0.552-0.545,1.102-1.092,1.651-1.64
		c0.66-0.657,1.319-1.314,1.983-1.966c0.092-0.09,0.259-0.159,0.387-0.159c3.676-0.004,7.353-0.007,11.029-0.007
		c4.219,0,8.437,0.004,12.654,0.016c0.287,0,0.592,0.131,0.886,0.257l0.266,0.11c0.509,0.2,1.012,0.419,1.515,0.637l0.231,0.101
		c0.091,0.039,0.167,0.088,0.22,0.142L45,7.184c3.34,3.335,6.679,6.671,10.001,10.024c0.185,0.185,0.291,0.472,0.393,0.75
		c0.039,0.105,0.077,0.209,0.12,0.308c0.218,0.508,0.42,1.023,0.623,1.538l0.064,0.164c0.042,0.109,0.063,0.206,0.063,0.286
		c0.004,11.958,0.004,23.916-0.005,35.873c0,0.106-0.063,0.252-0.144,0.331c-1.222,1.236-2.45,2.466-3.688,3.686
		c-0.086,0.086-0.241,0.15-0.361,0.15c-5.775,0.003-11.554,0.005-17.33,0.005C28.608,60.298,22.481,60.296,16.352,60.292z
		 M15.97,56.462h36.475V24.008H36.324v-16.1H15.97V56.462z M40.163,20.165H52.47L40.163,7.845V20.165z"/>
</g>
</svg>
