<?xml version="1.0" encoding="utf-8"?>
<!-- Generator: Adobe Illustrator 16.0.0, SVG Export Plug-In . SVG Version: 6.00 Build 0)  -->
<!DOCTYPE svg PUBLIC "-//W3C//DTD SVG 1.1//EN" "http://www.w3.org/Graphics/SVG/1.1/DTD/svg11.dtd">
<svg version="1.1" id="Layer_1" xmlns="http://www.w3.org/2000/svg" xmlns:xlink="http://www.w3.org/1999/xlink" x="0px" y="0px"
	 width="64px" height="64px" viewBox="0 0 64 64" enable-background="new 0 0 64 64" xml:space="preserve">
<path id="canvas" fill="#F6F6F6" fill-opacity="0" d="M64,64H0V0h64V64z"/>
<path id="outline" fill="#F6F6F6" fill-opacity="0" d="M16,60c-3.881,0-8-2.805-8-8V12c0-5.195,4.119-8,8-8h24.242L56,18.225V52
	c0,3.879-2.805,8-8,8H16z"/>
<path id="iconBg" fill="#868686" d="M38.562,8H15.855c0,0-3.855,0-3.855,4c0,3.221,0,29.766,0,40c0,4,3.859,4,3.859,4s28,0,32,0
	S52,52,52,52V20L38.562,8z M48,52H16V12h20v12h12V52z"/>
<path id="iconFg" fill="#F0EFF1" d="M16,12h20v12h12v28H16V12z"/>
</svg>
