<?xml version="1.0" encoding="utf-8"?>
<!-- Generator: Adobe Illustrator 16.0.0, SVG Export Plug-In . SVG Version: 6.00 Build 0)  -->
<!DOCTYPE svg PUBLIC "-//W3C//DTD SVG 1.1//EN" "http://www.w3.org/Graphics/SVG/1.1/DTD/svg11.dtd">
<svg version="1.1" id="Layer_1" xmlns="http://www.w3.org/2000/svg" xmlns:xlink="http://www.w3.org/1999/xlink" x="0px" y="0px"
	 width="64px" height="64px" viewBox="0 0 64 64" enable-background="new 0 0 64 64" xml:space="preserve">
<g>
	<path fill="#848484" d="M49.287,18.852c-0.25-0.201-0.481-0.406-0.704-0.604c-0.216-0.192-0.439-0.391-0.68-0.583l-2.043-1.75
		l-0.052-0.043c-0.006-0.006-0.013-0.012-0.019-0.018c-0.391-0.391-0.877-0.878-1.362-1.266c-0.356-0.305-0.729-0.628-1.102-0.952
		c-0.372-0.322-0.744-0.645-1.091-0.942c-0.007-0.006-0.013-0.011-0.019-0.017c-0.19-0.19-0.413-0.388-0.628-0.579
		c-0.225-0.2-0.457-0.406-0.663-0.613c-0.34-0.34-0.714-0.665-1.076-0.978c-0.364-0.316-0.74-0.642-1.092-0.991
		C38.402,9.25,38.171,9.1,37.685,9.1H17.133c-0.686,0-1.335,0-1.981,0.182c-0.876,0.331-1.402,0.713-1.703,1.24
		c-0.004,0.007-0.008,0.013-0.012,0.02c-0.138,0.207-0.228,0.581-0.308,0.911l-0.033,0.137v0.556v0.397V51.56v0.396v0.596
		c0,0.015-0.001,0.029-0.003,0.045c0.046,0.079,0.103,0.196,0.103,0.352c0,0.259,0.211,0.569,0.38,0.82l0.055,0.081
		c0.557,0.739,1.273,1.16,2.13,1.25h0.38h0.298h31.175h0.224c0.085-0.038,0.155-0.062,0.218-0.082
		c0.068-0.022,0.127-0.042,0.205-0.081c0.021-0.011,0.044-0.019,0.067-0.024c0.396-0.1,0.762-0.191,1.124-0.373
		c0.609-0.305,1.004-0.668,1.241-1.143c0.009-0.018,0.02-0.034,0.031-0.051c0.145-0.192,0.204-0.433,0.272-0.711
		c0.044-0.174,0.088-0.354,0.157-0.542v-0.335V51.56V20.598c-0.011-0.042-0.061-0.137-0.101-0.178
		C50.463,19.83,49.865,19.333,49.287,18.852z M48.938,52.056c0,0.629-0.44,0.629-0.629,0.629H16.141
		c-0.483,0-0.728-0.245-0.728-0.729V32.1V12.045c0-0.483,0.245-0.728,0.728-0.728h20.254c0.629,0,0.629,0.44,0.629,0.628v11.219
		c0,0.027,0.001,0.048,0.002,0.063c0.016,0.001,0.036,0.002,0.063,0.002h11.22c0.629,0,0.629,0.44,0.629,0.629V52.056z"/>
</g>
</svg>
