<?xml version="1.0" encoding="utf-8"?>
<!-- Generator: Adobe Illustrator 16.0.0, SVG Export Plug-In . SVG Version: 6.00 Build 0)  -->
<!DOCTYPE svg PUBLIC "-//W3C//DTD SVG 1.1//EN" "http://www.w3.org/Graphics/SVG/1.1/DTD/svg11.dtd">
<svg version="1.1" id="Layer_1" xmlns="http://www.w3.org/2000/svg" xmlns:xlink="http://www.w3.org/1999/xlink" x="0px" y="0px"
	 width="64px" height="64px" viewBox="0 0 64 64" enable-background="new 0 0 64 64" xml:space="preserve">
<g>
	<path fill="#848484" d="M29.117,55.949c-8.582,0-17.163-0.001-25.744,0.006c-0.279,0-0.484-0.063-0.68-0.271
		c-0.498-0.521-1.026-1.016-1.525-1.535c-0.095-0.1-0.161-0.271-0.161-0.406C1,44.479,0.999,35.217,1.001,25.955
		c0.001-5.292,0.011-10.583,0.008-15.874c0-0.261,0.079-0.455,0.257-0.63c0.537-0.527,1.064-1.064,1.61-1.582
		C2.98,7.77,3.152,7.688,3.293,7.688C9.852,7.679,16.411,7.677,22.97,7.692c0.301,0,0.603,0.166,0.9,0.266
		c0.519,0.175,0.921,0.509,1.3,0.903c0.85,0.882,1.737,1.729,2.596,2.604c0.171,0.174,0.34,0.236,0.576,0.236
		c8.864-0.004,17.729-0.002,26.592-0.009c0.279,0,0.484,0.063,0.682,0.269c0.5,0.523,1.025,1.017,1.527,1.538
		c0.096,0.099,0.164,0.269,0.164,0.405c0.01,7.25,0.012,14.501,0.008,21.752c-0.004,5.962-0.016,11.924-0.016,17.885
		c0,0.261-0.078,0.455-0.256,0.63c-0.523,0.512-1.053,1.018-1.559,1.547c-0.166,0.174-0.328,0.235-0.562,0.235
		C46.323,55.948,37.719,55.949,29.117,55.949z M5.002,51.94c0.153,0,0.257,0,0.36,0c15.84,0,31.68,0,47.52,0
		c0.404,0,0.406,0,0.406-0.42c0-2.504,0-5.008,0-7.512c0-6.609-0.002-13.221,0.002-19.832c0-0.265-0.023-0.424-0.365-0.424
		c-8.232,0.008-16.467,0.005-24.702,0.014c-0.146,0-0.328,0.069-0.432,0.169c-0.643,0.622-1.25,1.282-1.905,1.889
		c-0.632,0.585-1.093,1.378-1.986,1.656c-0.358,0.112-0.674,0.314-1.082,0.311c-2.2-0.019-4.4-0.009-6.6-0.009
		c-3.604,0-7.208,0.002-10.811-0.005c-0.279,0-0.396,0.069-0.39,0.37c0.012,0.66-0.013,1.319-0.014,1.979
		C5.002,37.261,5.002,44.396,5.002,51.53C5.002,51.653,5.002,51.776,5.002,51.94z M53.293,15.706c-0.154,0-0.287,0-0.42,0
		c-8.225,0-16.449,0-24.673,0c-0.565,0-1.138,0.063-1.662-0.247c-0.345-0.204-0.747-0.278-1.05-0.594
		c-0.981-1.021-1.994-2.01-3.003-3.002c-0.097-0.095-0.261-0.172-0.394-0.173c-5.584-0.008-11.168-0.006-16.751-0.011
		c-0.244,0-0.323,0.073-0.323,0.324c0.007,3.813,0.007,7.626,0,11.44c0,0.263,0.083,0.338,0.34,0.337
		c5.563-0.006,11.126-0.003,16.689-0.011c0.137,0,0.308-0.062,0.405-0.156c0.691-0.673,1.351-1.379,2.053-2.041
		c0.52-0.489,0.912-1.123,1.622-1.402c0.592-0.233,1.165-0.433,1.832-0.432c8.307,0.021,16.616,0.014,24.922,0.014
		c0.133,0,0.266,0,0.412,0C53.293,18.396,53.293,17.079,53.293,15.706z"/>
</g>
</svg>
