<?xml version="1.0" encoding="utf-8"?>
<!-- Generator: Adobe Illustrator 16.0.0, SVG Export Plug-In . SVG Version: 6.00 Build 0)  -->
<!DOCTYPE svg PUBLIC "-//W3C//DTD SVG 1.1//EN" "http://www.w3.org/Graphics/SVG/1.1/DTD/svg11.dtd">
<svg version="1.1" id="Layer_1" xmlns="http://www.w3.org/2000/svg" xmlns:xlink="http://www.w3.org/1999/xlink" x="0px" y="0px"
	 width="64px" height="64px" viewBox="0 0 64 64" enable-background="new 0 0 64 64" xml:space="preserve">
<g>
	<path fill="#848484" d="M1.063,9.556C1.64,8.989,2.212,8.416,2.8,7.859c0.1-0.095,0.266-0.171,0.401-0.171
		C9.77,7.68,16.338,7.674,22.907,7.699C23.3,7.7,23.695,7.947,24.083,8.093c0.709,0.266,1.098,0.913,1.617,1.401
		c0.704,0.66,1.358,1.373,2.056,2.041c0.12,0.115,0.348,0.163,0.527,0.163c7.5,0.008,15,0.009,22.502,0
		c0.305,0,0.521,0.075,0.733,0.303c0.468,0.501,0.963,0.976,1.456,1.452c0.184,0.177,0.266,0.36,0.264,0.627
		c-0.011,3.09-0.007,6.181-0.007,9.271c0,0.125,0,0.25,0,0.424c0.138,0,0.259,0,0.379,0c2.556,0,5.112,0.005,7.668-0.007
		c0.347-0.001,0.593,0.061,0.81,0.369c0.445,0.633,0.924,1.245,1.426,1.833c0.293,0.343,0.113,0.633,0,0.941
		c-0.321,0.871-0.648,1.739-0.979,2.606c-0.312,0.821-0.629,1.64-0.941,2.46c-0.272,0.715-0.541,1.433-0.811,2.15
		c-0.312,0.829-0.625,1.659-0.938,2.489c-0.273,0.726-0.549,1.449-0.819,2.176c-0.271,0.729-0.53,1.458-0.805,2.186
		c-0.315,0.84-0.64,1.678-0.96,2.516c-0.28,0.734-0.565,1.467-0.842,2.201c-0.271,0.729-0.53,1.462-0.803,2.188
		c-0.302,0.812-0.611,1.619-0.918,2.429c-0.279,0.744-0.56,1.49-0.839,2.235c-0.222,0.593-0.397,1.208-0.685,1.767
		c-0.146,0.287-0.485,0.48-0.752,0.697c-0.252,0.206-0.553,0.359-0.78,0.588c-0.282,0.284-0.595,0.35-0.976,0.349
		c-15.81-0.007-31.618-0.007-47.426,0.002c-0.273,0-0.454-0.083-0.633-0.275c-0.507-0.544-1.031-1.071-1.548-1.606
		C1.063,39.229,1.063,24.393,1.063,9.556z M59.179,27.794c-0.151-0.007-0.263-0.016-0.373-0.016
		c-7.543-0.001-15.086-0.002-22.628,0.008c-0.174,0-0.387,0.094-0.512,0.215c-0.975,0.95-1.926,1.922-2.898,2.874
		c-0.2,0.196-0.435,0.378-0.688,0.495c-0.597,0.278-1.208,0.448-1.898,0.444c-4.84-0.027-9.68-0.014-14.52-0.014
		c-1.006,0-2.012,0.004-3.017-0.003c-0.234-0.002-0.341,0.069-0.412,0.311c-0.197,0.681-0.433,1.35-0.659,2.022
		c-0.232,0.689-0.476,1.377-0.707,2.068c-0.23,0.691-0.446,1.389-0.677,2.08c-0.23,0.691-0.476,1.379-0.706,2.068
		c-0.231,0.692-0.447,1.391-0.678,2.081c-0.23,0.691-0.475,1.378-0.706,2.069s-0.448,1.388-0.677,2.081
		C7.191,47.291,6.951,48,6.711,48.709c-0.233,0.69-0.471,1.38-0.701,2.072c-0.122,0.366-0.231,0.739-0.362,1.159
		c0.209,0,0.354,0,0.498,0c14.352,0,28.704,0,43.056,0c0.084,0,0.18,0.024,0.25-0.008c0.104-0.049,0.234-0.119,0.273-0.215
		C50,51.05,50.25,50.37,50.517,49.697c0.405-1.023,0.821-2.042,1.228-3.066c0.307-0.774,0.603-1.557,0.907-2.333
		c0.324-0.826,0.655-1.65,0.983-2.477c0.357-0.899,0.719-1.799,1.076-2.698c0.31-0.776,0.619-1.556,0.925-2.333
		c0.315-0.807,0.625-1.614,0.942-2.42c0.312-0.788,0.631-1.572,0.942-2.359c0.317-0.806,0.628-1.615,0.944-2.422
		C58.697,29.004,58.931,28.419,59.179,27.794z M49.217,15.706c-0.17,0-0.305,0-0.439,0c-7.062,0-14.123,0.001-21.184-0.005
		c-0.282,0-0.589-0.022-0.841-0.133c-0.44-0.194-0.933-0.286-1.294-0.652c-0.993-1.005-2.004-1.992-2.992-3.003
		c-0.171-0.175-0.333-0.233-0.563-0.233c-5.531,0.004-11.063,0.003-16.595,0.003c-0.111,0-0.222,0-0.317,0c0,9.79,0,19.537,0,29.285
		c0.104-0.139,0.168-0.277,0.215-0.422c0.308-0.947,0.605-1.898,0.919-2.844c0.315-0.945,0.652-1.883,0.968-2.827
		c0.273-0.817,0.527-1.644,0.796-2.463c0.281-0.858,0.566-1.715,0.859-2.57c0.125-0.365,0.229-0.735,0.614-0.956
		c0.341-0.197,0.658-0.444,0.957-0.702c0.397-0.342,0.845-0.394,1.348-0.393c6.065,0.012,12.131,0.007,18.197,0.011
		c0.22,0,0.373-0.056,0.534-0.224c0.693-0.721,1.392-1.44,2.125-2.121c0.469-0.436,0.823-1.006,1.459-1.26
		c0.602-0.24,1.186-0.441,1.864-0.438c4.325,0.029,8.653,0.015,12.979,0.015c0.131,0,0.262,0,0.394,0
		C49.217,21.064,49.217,18.406,49.217,15.706z"/>
</g>
</svg>
