<?xml version="1.0" encoding="utf-8"?>
<!-- Generator: Adobe Illustrator 16.0.0, SVG Export Plug-In . SVG Version: 6.00 Build 0)  -->
<!DOCTYPE svg PUBLIC "-//W3C//DTD SVG 1.1//EN" "http://www.w3.org/Graphics/SVG/1.1/DTD/svg11.dtd">
<svg version="1.1" id="Layer_1" xmlns="http://www.w3.org/2000/svg" xmlns:xlink="http://www.w3.org/1999/xlink" x="0px" y="0px"
	 width="64px" height="64px" viewBox="0 0 64 64" style="enable-background:new 0 0 64 64;" xml:space="preserve">
<path id="canvas" style="fill:#F6F6F6;fill-opacity:0;" d="M64,64H0V0h64V64z"/>
<path id="outline" style="fill:#F6F6F6;fill-opacity:0;" d="M64,10v40c0,3.3-2.7,6-6,6H10c-3.3,0-6-2.7-6-6V18c0-3.3,2.7-6,6-6h11.5
	l4-8H58C61.3,4,64,6.7,64,10z"/>
<path id="iconBg" style="fill:#A6A6A6;" d="M58,8H28l-4,8H10c-1.1,0-2,0.9-2,2v32c0,1.1,0.9,2,2,2h48c1.1,0,2-0.9,2-2V10
	C60,8.9,59.1,8,58,8z M56,16H30l2-4h24V16L56,16z"/>
<path id="iconFg" style="fill:#F0EFF1;" d="M56,12v4H30l2-4H56z"/>
</svg>
