<?xml version="1.0" encoding="utf-8"?>
<!-- Generator: Adobe Illustrator 23.0.2, SVG Export Plug-In . SVG Version: 6.00 Build 0)  -->
<svg version="1.1" id="Layer_1" xmlns="http://www.w3.org/2000/svg" xmlns:xlink="http://www.w3.org/1999/xlink" x="0px" y="0px"
	 viewBox="0 0 16 16" style="enable-background:new 0 0 16 16;" xml:space="preserve">
<style type="text/css">
	.st0{fill-rule:evenodd;clip-rule:evenodd;fill:#424242;}
</style>
<path class="st0" d="M0.01087,2.5l0.5-0.5h4.9962602l0.35355,0.14645L6.71349,2.9992499h6.7876096l0.5,0.5V8.99512
	l-0.0107994,0.01087v4.49611l-0.5,0.5H0.5l-0.5-0.5V6.50735l0.01087-0.01087V2.5z M13.0010996,3.9992499v1.00386H6.5005002
	L6.1469498,5.14956L5.2891502,6.00735H1.01087V3h4.2891502l0.8528099,0.8527999l0.35355,0.14645H13.0010996z M5.4962602,7.00735
	H1.01087v0.4885302H0.99963v3.9970198H1V13.0021h11.9903002v-1.5092001h0.0002995V7.4958801h-0.0002995V6.0031099h-6.28269
	l-0.8578,0.85779L5.4962602,7.00735z"/>
</svg>
