<?xml version="1.0" encoding="utf-8"?>
<!-- Generator: Adobe Illustrator 16.0.0, SVG Export Plug-In . SVG Version: 6.00 Build 0)  -->
<!DOCTYPE svg PUBLIC "-//W3C//DTD SVG 1.1//EN" "http://www.w3.org/Graphics/SVG/1.1/DTD/svg11.dtd">
<svg version="1.1" id="Layer_1" xmlns="http://www.w3.org/2000/svg" xmlns:xlink="http://www.w3.org/1999/xlink" x="0px" y="0px"
	 width="64px" height="64px" viewBox="0 0 64 64" enable-background="new 0 0 64 64" xml:space="preserve">
<g>
	<path fill="#838383" d="M52.754,22.466c0-3.55-1.748-5.451-4.426-5.451c-5.352,0-10.705,0-16.059,0c-5.352,0-10.602,0-15.956-0.126
		c-2.367,0-3.603,1.521-3.603,4.437c0,10.266,0,20.661,0,30.927c0,3.168,1.338,4.814,3.912,4.814c5.353,0,10.706,0,16.059,0
		c5.25,0,10.5,0.129,15.75,0c2.574,0,4.322-1.9,4.322-5.197C52.754,42.112,52.653,32.224,52.754,22.466z M49.768,52.252
		c0,0.887-0.203,1.141-0.924,1.141c-10.705,0-21.515,0-32.221,0c-0.926,0-0.926-0.633-0.926-1.395c0-6.338,0-12.676,0-19.14
		c0-3.675,0-7.352,0-11.027c0-1.014,0.206-1.267,1.029-1.267c5.25,0.126,10.603,0.126,15.956,0.126c5.354,0,10.604,0,15.955,0
		c1.029,0,1.131,0.127,1.131,1.394C49.768,32.099,49.768,42.239,49.768,52.252z"/>
	<path fill="#838383" d="M42.049,45.28c-1.131-2.281-2.264-4.562-3.293-6.971c-0.207-0.506-0.412-0.633-0.824-0.254
		c-1.338,1.268-2.574,2.662-3.91,3.932c-1.031,1.139-2.165,2.279-3.296,3.42c-0.309,0.381-0.721,0.508-1.235,0.127
		c-0.825-0.762-1.75-1.141-2.676-1.775c-0.515-0.379-0.824-0.252-1.236,0.254c-1.853,2.281-3.603,4.689-5.559,6.719
		c-0.206,0-0.309,0.127-0.206,0.379c0.102,0.127,0.206,0.127,0.309,0.127c0.309,0,0.514,0,0.721,0c7.205,0,14.41,0,21.617,0
		c0.824,0,1.545,0,2.471,0C43.903,49.209,42.977,47.182,42.049,45.28z"/>
</g>
</svg>
