<?xml version="1.0" encoding="utf-8"?>
<!-- Generator: Adobe Illustrator 16.0.0, SVG Export Plug-In . SVG Version: 6.00 Build 0)  -->
<!DOCTYPE svg PUBLIC "-//W3C//DTD SVG 1.1//EN" "http://www.w3.org/Graphics/SVG/1.1/DTD/svg11.dtd">
<svg version="1.1" id="Layer_1" xmlns="http://www.w3.org/2000/svg" xmlns:xlink="http://www.w3.org/1999/xlink" x="0px" y="0px"
	 width="64px" height="64px" viewBox="0 0 64 64" enable-background="new 0 0 64 64" xml:space="preserve">
<g>
	<path fill-rule="evenodd" clip-rule="evenodd" fill="#848484" d="M16.847,58.349c-0.224,0-0.373-0.062-0.53-0.223
		c-1.179-1.192-2.365-2.378-3.557-3.558c-0.131-0.13-0.183-0.257-0.183-0.451c0,0,0.007-26.262,0.013-33.225
		c0-0.139,0.073-0.317,0.169-0.416c1.197-1.217,2.405-2.424,3.622-3.622c0.094-0.093,0.261-0.164,0.387-0.164
		c5.957-0.004,11.914-0.007,17.87-0.007c5.957,0,11.913,0.002,17.87,0.007c0.126,0,0.293,0.07,0.387,0.163
		c1.218,1.198,2.425,2.405,3.622,3.623c0.097,0.099,0.17,0.277,0.17,0.416c0.005,6.918,0.013,33.225,0.013,33.225
		c0,0.194-0.052,0.321-0.183,0.451c-1.191,1.18-2.379,2.365-3.557,3.558c-0.158,0.16-0.307,0.223-0.53,0.223
		c-4.609-0.006-9.219-0.006-13.828-0.006h-7.926C26.065,58.343,21.456,58.343,16.847,58.349z M24.514,41.378
		c-0.042,0.07-0.079,0.132-0.124,0.179c-1.612,1.674-3.225,3.347-4.843,5.015l-1.074,1.1c-0.587,0.6-1.175,1.199-1.753,1.807
		c-0.146,0.153-0.25,0.405-0.253,0.612c-0.015,1.057-0.013,2.112-0.011,3.169l0.001,0.793c0,0.071,0.005,0.144,0.011,0.217
		l0.007,0.093l0.1,0.096h36.242v-2.597c-0.001-2.308-0.001-4.614,0.005-6.921c0.001-0.298-0.089-0.518-0.301-0.734
		c-3.484-3.552-6.963-7.109-10.44-10.668c-0.044-0.045-0.079-0.104-0.119-0.174l-0.139-0.22L29.343,45.946l-4.688-4.789
		L24.514,41.378z M16.483,44.093l0.164,0.117l0.103-0.048l0.07-0.101c0.045-0.065,0.089-0.132,0.145-0.188l6.148-6.294
		c0.134-0.138,0.255-0.191,0.434-0.191c0.237,0.004,1.371,0.004,1.371,0.004c0.322,0,0.644,0.002,0.966,0.01
		c0.146,0.005,0.32,0.077,0.416,0.172c0.616,0.611,1.222,1.232,1.827,1.853l0.663,0.679l0.562,0.561l0.07-0.063
		c0.117-0.105,0.161-0.145,0.202-0.188l5.01-5.17c1.908-1.971,3.815-3.942,5.73-5.907c0.091-0.093,0.268-0.165,0.419-0.171
		c0.159-0.007,0.319-0.009,0.479-0.009l0.683,0.004c0.189,0,0.379-0.002,0.567-0.012c0.003,0,0.006,0,0.009,0
		c0.328,0,0.531,0.097,0.759,0.331c1.863,1.915,3.731,3.825,5.599,5.735l3.469,3.551c0.036,0.038,0.062,0.102,0.087,0.168
		l0.047,0.111l0.056,0.115l0.23-0.196l0.033-18.379H16.483V44.093z"/>
</g>
</svg>
