<?xml version="1.0" encoding="utf-8"?>
<!-- Generator: Adobe Illustrator 16.0.0, SVG Export Plug-In . SVG Version: 6.00 Build 0)  -->
<!DOCTYPE svg PUBLIC "-//W3C//DTD SVG 1.1//EN" "http://www.w3.org/Graphics/SVG/1.1/DTD/svg11.dtd">
<svg version="1.1" id="Layer_1" xmlns="http://www.w3.org/2000/svg" xmlns:xlink="http://www.w3.org/1999/xlink" x="0px" y="0px"
	 width="64px" height="64px" viewBox="0 0 64 64" enable-background="new 0 0 64 64" xml:space="preserve">
<g>
	<g>
		<path fill="#848484" d="M52.137,51.658c0-3.222-0.011-6.515-0.021-9.7c-0.021-6.337-0.044-12.889,0.022-19.288
			c0-3.201-1.47-5.039-4.032-5.039h-15.83c-5.375,0-10.452,0-15.732-0.124c-2.135,0.001-3.217,1.362-3.217,4.043v30.486
			c0,2.929,1.187,4.414,3.526,4.414h15.831c1.726,0,3.48,0.014,5.178,0.028c1.695,0.014,3.448,0.028,5.172,0.028
			c1.933,0,3.622-0.019,5.167-0.057C50.631,56.45,52.137,54.614,52.137,51.658z M49.855,52.035c0,0.897-0.208,1.454-1.242,1.454
			H16.853c-1.244,0-1.244-0.985-1.244-1.705V32.917v-10.87c0-1.024,0.214-1.579,1.345-1.579c5.179,0.124,10.542,0.124,15.729,0.124
			H48.41c1.137,0,1.445,0.212,1.445,1.705V52.035z"/>
	</g>
	<path fill="#A6A6A6" d="M42.049,45.28c-1.131-2.281-2.264-4.562-3.293-6.972c-0.207-0.506-0.412-0.633-0.824-0.254
		c-1.338,1.269-2.574,2.662-3.91,3.932c-1.03,1.14-2.165,2.279-3.295,3.421c-0.309,0.381-0.721,0.508-1.235,0.127
		c-0.825-0.763-1.75-1.142-2.676-1.775c-0.515-0.379-0.824-0.252-1.236,0.255c-1.853,2.28-3.603,4.688-5.559,6.719
		c-0.206,0-0.309,0.127-0.206,0.379c0.102,0.127,0.206,0.127,0.309,0.127c0.309,0,0.514,0,0.721,0c7.205,0,14.41,0,21.617,0
		c0.824,0,1.545,0,2.471,0C43.902,49.209,42.977,47.182,42.049,45.28z"/>
</g>
</svg>
