<?xml version="1.0" encoding="utf-8"?>
<!-- Generator: Adobe Illustrator 16.0.0, SVG Export Plug-In . SVG Version: 6.00 Build 0)  -->
<!DOCTYPE svg PUBLIC "-//W3C//DTD SVG 1.1//EN" "http://www.w3.org/Graphics/SVG/1.1/DTD/svg11.dtd">
<svg version="1.1" id="Layer_1" xmlns="http://www.w3.org/2000/svg" xmlns:xlink="http://www.w3.org/1999/xlink" x="0px" y="0px"
	 width="64px" height="64px" viewBox="0 0 64 64" enable-background="new 0 0 64 64" xml:space="preserve">
<g>
	<path fill-rule="evenodd" clip-rule="evenodd" fill="#848484" d="M43.739,48.188c-1.352,0.497-2.616,0.963-3.903,1.437
		c-1.474-1.837-2.549-3.872-3.458-6.001c-1.986-4.651-3.201-9.531-4.249-14.458c-0.043-0.202-0.093-0.403-0.184-0.796
		c-2.55,7.227-5.041,14.284-7.544,21.381c-1.213-0.27-2.385-0.529-3.614-0.802c0.057-0.196,0.095-0.369,0.156-0.534
		c2.778-7.507,5.561-15.011,8.33-22.521c0.144-0.391,0.322-0.586,0.758-0.525c0.285,0.04,0.58,0.007,0.917,0.007
		c-0.98-4.161-3.507-6.557-7.817-7.014c0.203-1.031,0.391-1.981,0.585-2.971c4.333,0.548,7.906,2.183,9.917,6.312
		c1.104,2.267,1.639,4.704,2.236,7.126c1.006,4.079,2.06,8.144,3.592,12.065C40.489,43.523,41.724,46.032,43.739,48.188z"/>
</g>
</svg>
