<?xml version="1.0" encoding="utf-8"?>
<!-- Generator: Adobe Illustrator 16.0.0, SVG Export Plug-In . SVG Version: 6.00 Build 0)  -->
<!DOCTYPE svg PUBLIC "-//W3C//DTD SVG 1.1//EN" "http://www.w3.org/Graphics/SVG/1.1/DTD/svg11.dtd">
<svg version="1.1" id="Layer_1" xmlns="http://www.w3.org/2000/svg" xmlns:xlink="http://www.w3.org/1999/xlink" x="0px" y="0px"
	 width="64px" height="64px" viewBox="0 0 64 64" enable-background="new 0 0 64 64" xml:space="preserve">
<g>
	<path fill-rule="evenodd" clip-rule="evenodd" fill="#848484" d="M30.577,25.375c-0.997-4.043-3.697-5.979-7.728-6.398
		c0.229-1.266,0.445-2.459,0.672-3.71c1.577,0.183,3.082,0.528,4.552,1.043c3.56,1.246,5.757,3.833,6.897,7.305
		c0.888,2.701,1.501,5.491,2.285,8.228c0.722,2.517,1.438,5.04,2.284,7.516c1.066,3.121,2.448,6.098,4.736,8.679
		c-1.733,0.586-3.394,1.146-5.078,1.716c-1.405-1.831-2.453-3.833-3.321-5.933c-1.806-4.367-2.858-8.943-3.755-13.563
		c-0.057-0.294-0.121-0.587-0.31-0.894c-2.168,6.776-4.337,13.552-6.524,20.388c-1.641-0.376-3.252-0.745-4.913-1.126
		c0.805-2.224,1.587-4.389,2.371-6.552c1.947-5.376,3.901-10.749,5.828-16.131c0.164-0.457,0.367-0.628,0.837-0.576
		C29.781,25.408,30.159,25.375,30.577,25.375z"/>
</g>
</svg>
