<?xml version="1.0" encoding="utf-8"?>
<!-- Generator: Adobe Illustrator 16.0.0, SVG Export Plug-In . SVG Version: 6.00 Build 0)  -->
<!DOCTYPE svg PUBLIC "-//W3C//DTD SVG 1.1//EN" "http://www.w3.org/Graphics/SVG/1.1/DTD/svg11.dtd">
<svg version="1.1" id="Layer_1" xmlns="http://www.w3.org/2000/svg" xmlns:xlink="http://www.w3.org/1999/xlink" x="0px" y="0px"
	 width="64px" height="64px" viewBox="0 0 64 64" enable-background="new 0 0 64 64" xml:space="preserve">
<g>
	<path fill-rule="evenodd" clip-rule="evenodd" fill="#848484" d="M42.878,47.979c-1.536,0.518-3.01,1.013-4.542,1.528
		c-3.873-5.42-5.115-11.756-6.545-18.073c-1.924,6.001-3.849,12.001-5.793,18.063c-1.455-0.333-2.883-0.659-4.366-0.998
		c0.731-2.025,1.44-3.993,2.153-5.96c1.672-4.612,3.362-9.219,5.001-13.842c0.236-0.665,0.535-0.963,1.232-0.835
		c0.2,0.037,0.413,0.005,0.67,0.005c-0.876-3.591-3.326-5.223-6.856-5.622c0.202-1.104,0.391-2.137,0.598-3.266
		c0.668,0.122,1.312,0.237,1.954,0.356c4.293,0.796,7.118,3.287,8.391,7.445c0.784,2.562,1.343,5.192,2.124,7.757
		c0.834,2.74,1.752,5.459,2.744,8.147C40.358,44.622,41.461,46.368,42.878,47.979z"/>
</g>
</svg>
