<?xml version="1.0" encoding="utf-8"?>
<!-- Generator: Adobe Illustrator 16.0.0, SVG Export Plug-In . SVG Version: 6.00 Build 0)  -->
<!DOCTYPE svg PUBLIC "-//W3C//DTD SVG 1.1//EN" "http://www.w3.org/Graphics/SVG/1.1/DTD/svg11.dtd">
<svg version="1.1" id="Layer_1" xmlns="http://www.w3.org/2000/svg" xmlns:xlink="http://www.w3.org/1999/xlink" x="0px" y="0px"
	 width="64px" height="64px" viewBox="0 0 64 64" enable-background="new 0 0 64 64" xml:space="preserve">
<g>
	<path fill="#848484" d="M22.596,56.108c-6.46-5.507-10.203-13.402-10.268-21.663c-0.066-8.393,3.573-16.247,10.248-22.115
		l0.076-0.066l2.926,2.846l-0.519,0.667c-0.674,0.861-1.336,1.708-1.969,2.581c-2.734,3.768-4.331,7.492-4.883,11.385
		c-1.127,7.945,0.417,14.55,4.722,20.193c0.646,0.845,1.299,1.685,1.97,2.543l0.678,0.87l-2.904,2.824L22.596,56.108z"/>
	<path fill="#848484" d="M38.657,53.312l0.061-0.069c5.298-5.973,7.747-12.011,7.707-19.003c-0.038-6.945-2.484-12.993-7.703-19.031
		l-0.061-0.069l2.958-2.883l0.076,0.067c6.589,5.848,10.216,13.632,10.212,21.917c-0.004,8.286-3.632,16.062-10.215,21.893
		L41.617,56.2L38.657,53.312z"/>
</g>
</svg>
