<?xml version="1.0" encoding="utf-8"?>
<!-- Generator: Adobe Illustrator 16.0.0, SVG Export Plug-In . SVG Version: 6.00 Build 0)  -->
<!DOCTYPE svg PUBLIC "-//W3C//DTD SVG 1.1//EN" "http://www.w3.org/Graphics/SVG/1.1/DTD/svg11.dtd">
<svg version="1.1" id="Layer_1" xmlns="http://www.w3.org/2000/svg" xmlns:xlink="http://www.w3.org/1999/xlink" x="0px" y="0px"
	 width="64.1px" height="64.1px" viewBox="0 0 64.1 64.1" style="enable-background:new 0 0 64.1 64.1;" xml:space="preserve">
<g>
	<g>
		<path style="fill:#848484;" d="M12.8,35.9C12.7,29.5,15,24,19.4,19.5c1.1-1.1,2.2-2.2,3.4-3.2c0.2-0.2,0.4-0.2,0.6,0
			c0.6,0.6,1.2,1.2,1.9,1.8c0.3,0.3,0.2,0.4,0,0.6c-1.4,1.3-2.6,2.7-3.8,4.2c-2.5,3.3-3.8,7-4,11.1c-0.3,5,0.4,9.8,3.4,14
			c1.2,1.8,2.6,3.4,4.2,4.9c0.5,0.5,0.5,0.7,0,1.1c-0.6,0.5-1.1,1.1-1.7,1.6c-0.1,0.1-0.2,0.3-0.4,0.1c-4.1-3.4-7.6-7.3-9.1-12.6
			C13.1,40.7,12.8,38.3,12.8,35.9z"/>
		<path style="fill:#848484;" d="M51.5,35.8c0.1,6.5-2.2,12-6.7,16.6c-1.1,1.1-2.2,2.1-3.3,3.1c-0.2,0.2-0.4,0.2-0.6,0
			c-0.6-0.6-1.2-1.2-1.9-1.8c-0.3-0.3-0.2-0.4,0-0.6c1.4-1.3,2.6-2.7,3.8-4.2c2.5-3.2,3.8-6.9,4-11c0.3-4.8-0.3-9.5-3.1-13.6
			c-1.3-2-2.8-3.7-4.5-5.3c-0.5-0.4-0.4-0.6,0-1c0.6-0.5,1.1-1.1,1.7-1.6c0.1-0.1,0.2-0.3,0.5-0.1c3.6,3,6.7,6.4,8.5,10.8
			C51,29.8,51.5,32.8,51.5,35.8z"/>
	</g>
</g>
</svg>
