<?xml version="1.0" encoding="utf-8"?>
<!-- Generator: Adobe Illustrator 16.0.0, SVG Export Plug-In . SVG Version: 6.00 Build 0)  -->
<!DOCTYPE svg PUBLIC "-//W3C//DTD SVG 1.1//EN" "http://www.w3.org/Graphics/SVG/1.1/DTD/svg11.dtd">
<svg version="1.1" id="Layer_1" xmlns="http://www.w3.org/2000/svg" xmlns:xlink="http://www.w3.org/1999/xlink" x="0px" y="0px"
	 width="64.1px" height="64.1px" viewBox="0 0 64.1 64.1" enable-background="new 0 0 64.1 64.1" xml:space="preserve">
<g>
	<g>
		<path fill="#848484" d="M12.8,34.9C12.7,28.5,15,23,19.4,18.5c1.101-1.101,2.2-2.2,3.4-3.2c0.2-0.2,0.4-0.2,0.6,0
			c0.601,0.6,1.2,1.2,1.9,1.8c0.3,0.3,0.2,0.4,0,0.601C23.9,19,22.7,20.4,21.5,21.9c-2.5,3.301-3.8,7-4,11.101
			c-0.3,5,0.399,9.8,3.399,14c1.2,1.8,2.601,3.399,4.2,4.899c0.5,0.5,0.5,0.7,0,1.101c-0.6,0.5-1.1,1.1-1.7,1.6
			C23.3,54.7,23.2,54.9,23,54.7C18.9,51.3,15.4,47.4,13.9,42.1C13.1,39.7,12.8,37.3,12.8,34.9z"/>
		<path fill="#848484" d="M51.5,34.8c0.1,6.5-2.2,12-6.7,16.6C43.7,52.5,42.6,53.5,41.5,54.5c-0.2,0.2-0.4,0.2-0.601,0
			C40.3,53.9,39.7,53.3,39,52.7c-0.3-0.301-0.2-0.4,0-0.601c1.399-1.3,2.6-2.7,3.8-4.2c2.5-3.199,3.8-6.899,4-11
			c0.3-4.8-0.3-9.5-3.1-13.6c-1.301-2-2.801-3.7-4.5-5.3c-0.5-0.4-0.4-0.601,0-1c0.6-0.5,1.1-1.101,1.699-1.601
			c0.101-0.1,0.2-0.3,0.5-0.1c3.601,3,6.7,6.4,8.5,10.8C51,28.8,51.5,31.8,51.5,34.8z"/>
	</g>
</g>
</svg>
