<?xml version="1.0" encoding="utf-8"?>
<!-- Generator: Adobe Illustrator 16.0.0, SVG Export Plug-In . SVG Version: 6.00 Build 0)  -->
<!DOCTYPE svg PUBLIC "-//W3C//DTD SVG 1.1//EN" "http://www.w3.org/Graphics/SVG/1.1/DTD/svg11.dtd">
<svg version="1.1" id="Layer_1" xmlns="http://www.w3.org/2000/svg" xmlns:xlink="http://www.w3.org/1999/xlink" x="0px" y="0px"
	 width="64px" height="64px" viewBox="0 0 64 64" enable-background="new 0 0 64 64" xml:space="preserve">
<g>
	<path fill="#848484" d="M32.279,44.264c5.66,0,11.322,0.016,16.982-0.012c1.23-0.006,1.75,0.09,1.748,0.711
		c-0.012,2.146,0.049,2.141-4.9,2.139c-10.314-0.004-20.629-0.014-30.944,0.014c-1.477,0.004-2.077-0.1-2.038-0.838
		c0.106-2.014,0.021-2.014,4.624-2.014C22.594,44.264,27.438,44.264,32.279,44.264z"/>
	<g>
		<path fill="#848484" d="M29.277,35.374c4.658,0,9.318,0.016,13.977-0.01c1.013-0.006,1.44,0.088,1.438,0.709
			c-0.01,2.146,0.04,2.141-4.033,2.139c-8.488-0.004-16.978-0.014-25.466,0.016c-1.215,0.004-1.709-0.1-1.677-0.838
			c0.087-2.014,0.018-2.016,3.806-2.016C21.306,35.374,25.293,35.374,29.277,35.374z"/>
	</g>
	<g>
		<path fill="#848484" d="M35.706,26.661c4.717,0,9.435,0.016,14.151-0.011c1.024-0.006,1.458,0.089,1.456,0.709
			c-0.01,2.146,0.041,2.141-4.083,2.139c-8.595-0.004-17.19-0.014-25.785,0.016c-1.23,0.004-1.73-0.1-1.698-0.838
			c0.088-2.014,0.018-2.015,3.853-2.015C27.636,26.661,31.672,26.661,35.706,26.661z"/>
	</g>
	<g>
		<path fill="#848484" d="M32.668,17.276c5.66,0,11.322,0.016,16.982-0.01c1.23-0.006,1.75,0.088,1.748,0.709
			c-0.012,2.146,0.049,2.141-4.9,2.139C36.183,20.11,25.868,20.1,15.553,20.13c-1.477,0.004-2.077-0.1-2.038-0.838
			c0.106-2.014,0.021-2.016,4.624-2.016C22.983,17.276,27.827,17.276,32.668,17.276z"/>
	</g>
</g>
</svg>
