<?xml version="1.0" encoding="utf-8"?>
<!-- Generator: Adobe Illustrator 16.0.0, SVG Export Plug-In . SVG Version: 6.00 Build 0)  -->
<!DOCTYPE svg PUBLIC "-//W3C//DTD SVG 1.1//EN" "http://www.w3.org/Graphics/SVG/1.1/DTD/svg11.dtd">
<svg version="1.1" id="Layer_1" xmlns="http://www.w3.org/2000/svg" xmlns:xlink="http://www.w3.org/1999/xlink" x="0px" y="0px"
	 width="64.1px" height="64.1px" viewBox="0 0 64.1 64.1" enable-background="new 0 0 64.1 64.1" xml:space="preserve">
<path fill="#656565" d="M43.4,23.7c-0.8,0-1.699-0.101-2.6,0c-0.6,0.1-0.7-0.101-0.6-0.7c0.399-2.3,0.699-4.5,1-6.8
	c0.1-0.301,0.1-0.5-0.4-0.5c-0.8,0-1.7,0-2.5,0c-0.4,0-0.5,0.199-0.5,0.5c-0.3,2.399-0.7,4.699-1,7.1c0,0.3,0,0.5-0.4,0.5
	c-2.199,0-4.399,0-6.6,0c0.3-2.6,0.6-5.1,1.1-7.8c0.101-0.5,0-0.5-0.399-0.5c-0.7,0-1.5,0.1-2.2,0c-0.6-0.101-0.7,0.2-0.8,0.7
	c-0.3,2.3-0.601,4.5-0.9,6.8c-0.1,0.399-0.2,0.5-0.6,0.5c-1.101,0-2.101,0-3.2,0c-0.5,0-0.6,0.2-0.6,0.6c0,0.7,0,1.4,0,2.101
	c0,0.399,0.1,0.5,0.5,0.5c1.1,0,2.3,0,3.399,0C25.6,30.1,25.2,33.4,24.7,36.8c0,0.4-0.2,0.4-0.5,0.4c-1,0-2.101,0-3.2,0
	c-0.4-0.101-0.5,0-0.5,0.399c0,0.7,0,1.4,0,2.101c0,0.5,0.1,0.5,0.5,0.5c0.8,0,1.7,0,2.6,0c0.5,0,0.7,0.199,0.601,0.699
	C23.9,43.3,23.6,45.6,23.3,48c0,0.3,0.1,0.399,0.4,0.399c0.699,0,1.5-0.1,2.199,0C26.5,48.5,26.7,48.3,26.7,47.7
	c0-0.101,0-0.2,0-0.301C27,45.2,27.3,42.9,27.6,40.7c0-0.2,0.101-0.4,0.4-0.4c2.1,0,4.1,0,6.2,0c0.3,0,0.3,0.1,0.3,0.4
	c-0.2,0.899-0.3,1.899-0.4,2.8c-0.2,1.7-0.399,3.3-0.6,5c1,0,1.899,0,2.899,0c0.4,0,0.5-0.2,0.5-0.5c0.301-2.4,0.601-4.8,0.9-7.2
	c0-0.3,0.2-0.4,0.5-0.4c1.1,0,2.3,0,3.4,0c0.3,0,0.399-0.199,0.399-0.5c0-0.699,0-1.399,0-2.1c0-0.5-0.1-0.5-0.5-0.5c-1,0-2,0-3,0
	c-0.2,0-0.3,0-0.3-0.3c0.5-3.3,0.9-6.5,1.3-9.8c0.101-0.301,0.2-0.4,0.5-0.4c1.101,0,2.2,0,3.3,0c0.4,0,0.5-0.1,0.5-0.5
	c0-0.7,0-1.4,0-2.1C43.9,23.8,43.8,23.7,43.4,23.7z M36.3,27.5c-0.3,2.2-0.6,4.399-0.9,6.6c-0.1,1-0.3,2-0.399,3
	c0,0.3-0.101,0.4-0.4,0.4C33.5,37.4,32.4,37.4,31.4,37.4s-2,0-3,0C28,37.4,27.9,37.3,28,37c0.399-2.601,0.7-5.3,1.1-7.9
	c0.101-0.6,0.2-1.1,0.2-1.7c0-0.399,0.2-0.5,0.6-0.5c2,0,3.9,0,5.9,0C36.3,26.9,36.4,27,36.3,27.5z"/>
</svg>
