<?xml version="1.0" encoding="utf-8"?>
<!-- Generator: Adobe Illustrator 23.0.2, SVG Export Plug-In . SVG Version: 6.00 Build 0)  -->
<svg version="1.1" id="Layer_1" xmlns="http://www.w3.org/2000/svg" xmlns:xlink="http://www.w3.org/1999/xlink" x="0px" y="0px"
	 width="15px" height="15px" viewBox="0 0 15 15" style="enable-background:new 0 0 15 15;" xml:space="preserve">
<g>
	<path style="fill:#848484;" d="M11.4,6L11.4,6l0.3-2.1h-0.9L10.5,6l0,0l0,0H8.7H8.6V5.9l0.3-2h-1l-0.3,2l0,0l0,0H6.5v0.9h1h0.1v0.1
		L7.1,9.7l0,0l0,0H6v0.8h1l0,0v0.1l-0.3,2.1h0.9L8,10.6l0,0l0,0h1.8h0.1v0.1l-0.3,2.1h0.9l0.3-2.1l0,0l0,0H12V9.8h-1h-0.1V9.7
		l0.3-2.8l0,0l0,0h1.1V6H11.4L11.4,6z M10.4,6.9L10,9.7l0,0l0,0H8.2H8.1V9.6l0.4-2.8l0,0l0,0L10.4,6.9L10.4,6.9L10.4,6.9z"/>
</g>
</svg>
