<?xml version="1.0" encoding="utf-8"?>
<!-- Generator: Adobe Illustrator 16.0.0, SVG Export Plug-In . SVG Version: 6.00 Build 0)  -->
<!DOCTYPE svg PUBLIC "-//W3C//DTD SVG 1.1//EN" "http://www.w3.org/Graphics/SVG/1.1/DTD/svg11.dtd">
<svg version="1.1" id="Layer_1" xmlns="http://www.w3.org/2000/svg" xmlns:xlink="http://www.w3.org/1999/xlink" x="0px" y="0px"
	 width="64px" height="64px" viewBox="0 0 64 64" enable-background="new 0 0 64 64" xml:space="preserve">
<g>
	<g>
		<path fill="#F6F6F6" d="M14.5,33.2c4.1,2.6,8.2,5.1,12.2,7.6c0.5,0.3,1.1,0.7,1.6,1c0.2,0.101,0.2,0.2,0.1,0.4
			c-0.5,0.6-1,1.3-1.4,2c-0.2,0.399-0.4,0.1-0.6,0c-2.4-1.5-4.7-2.9-7.1-4.4c-2.4-1.5-4.8-3-7.2-4.5c-0.4-0.2-0.5-0.399-0.5-0.8
			c0-0.9,0-1.7,0-2.6c0-0.3,0.1-0.4,0.3-0.6c4.9-3,9.8-6,14.6-9c0.3-0.2,0.5-0.1,0.7,0.2c0.3,0.5,0.6,1.1,1,1.6
			c0.3,0.4,0.3,0.7-0.2,1c-3.6,2.2-7.1,4.3-10.6,6.5C16.5,32,15.5,32.6,14.5,33.2z"/>
		<path fill="#F6F6F6" d="M49.7,33.2c-2.8-1.7-5.601-3.5-8.4-5.2c-1.7-1.1-3.5-2.1-5.2-3.2c-0.5-0.3-0.5-0.5-0.199-0.9
			c0.399-0.5,0.699-1.1,1.1-1.7c0.2-0.3,0.3-0.3,0.6-0.2c4.9,3.1,9.801,6.1,14.7,9.1c0.2,0.1,0.3,0.3,0.3,0.6c0,0.899,0,1.8,0,2.7
			c0,0.3-0.1,0.399-0.3,0.5c-4.899,3-9.7,6-14.5,9.1c-0.3,0.2-0.399,0.1-0.6-0.1C36.8,43.4,36.4,42.8,36,42.3
			c-0.3-0.399-0.3-0.6,0.1-0.8c4-2.5,8.101-5,12.101-7.5C48.7,33.8,49.2,33.5,49.7,33.2z"/>
	</g>
</g>
</svg>
