<?xml version="1.0" encoding="utf-8"?>
<!-- Generator: Adobe Illustrator 16.0.0, SVG Export Plug-In . SVG Version: 6.00 Build 0)  -->
<!DOCTYPE svg PUBLIC "-//W3C//DTD SVG 1.1//EN" "http://www.w3.org/Graphics/SVG/1.1/DTD/svg11.dtd">
<svg version="1.1" id="Layer_1" xmlns="http://www.w3.org/2000/svg" xmlns:xlink="http://www.w3.org/1999/xlink" x="0px" y="0px"
	 width="64px" height="64px" viewBox="0 0 64 64" enable-background="new 0 0 64 64" xml:space="preserve">
<g>
	<path fill="#989B9B" d="M35.706,44.25l13.087-8.927l-13.09-8.649l2.513-4.731c0.092,0.063,0.228,0.157,0.294,0.206l3.436,2.459
		c3.702,2.651,7.406,5.303,11.117,7.939c0.317,0.227,0.412,0.419,0.4,0.825c-0.019,0.717-0.017,1.437-0.015,2.151v0.109
		c0.001,0.62,0.002,1.24-0.012,1.859c-0.004,0.158-0.11,0.391-0.188,0.445c-4.093,2.957-8.194,5.9-12.328,8.867l-2.671,1.916
		L35.706,44.25z"/>
	<path fill="#989B9B" d="M20.71,44.355c-2.899-2.086-5.801-4.174-8.708-6.246c-0.312-0.225-0.411-0.428-0.4-0.84
		c0.016-0.636,0.015-1.271,0.013-1.906c-0.002-0.723-0.004-1.395,0.014-2.065c0.006-0.215,0.136-0.495,0.232-0.563
		c4.42-3.202,8.85-6.383,13.28-9.564l1.711-1.229l2.509,4.504l-13.13,8.884l13.129,8.694l-2.59,4.693L20.71,44.355z"/>
</g>
</svg>
