<?xml version="1.0" encoding="utf-8"?>
<!-- Generator: Adobe Illustrator 23.0.2, SVG Export Plug-In . SVG Version: 6.00 Build 0)  -->
<svg version="1.1" id="Layer_1" xmlns="http://www.w3.org/2000/svg" xmlns:xlink="http://www.w3.org/1999/xlink" x="0px" y="0px"
	 width="16px" height="16px" viewBox="0 0 16 16" style="enable-background:new 0 0 16 16;" xml:space="preserve">
<g>
	<polygon style="fill:#989b9b;" points="8.1,3.6 7.4,3.3 7.3,3.2 7.2,3.3 2.9,12.1 2.9,12.3 3,12.3 3.8,12.6 3.9,12.7 3.9,12.6 
		8.2,3.8 8.2,3.7 	"/>
	<polygon style="fill:#989b9b;" points="12,7.6 11.8,7.7 11.8,7.5 11.9,5.7 11,5.7 11.1,7.5 11.1,7.7 10.9,7.6 9.2,7 8.9,7.9 
		10.7,8.3 10.9,8.4 10.7,8.6 9.6,10 10.3,10.5 11.3,9 11.4,8.8 11.6,9 12.6,10.5 13.3,10 12.2,8.6 12,8.4 12.3,8.3 14,7.9 13.7,7 	
		"/>
</g>
</svg>
