<?xml version="1.0" encoding="utf-8"?>
<!-- Generator: Adobe Illustrator 16.0.0, SVG Export Plug-In . SVG Version: 6.00 Build 0)  -->
<!DOCTYPE svg PUBLIC "-//W3C//DTD SVG 1.1//EN" "http://www.w3.org/Graphics/SVG/1.1/DTD/svg11.dtd">
<svg version="1.1" id="Layer_1" xmlns="http://www.w3.org/2000/svg" xmlns:xlink="http://www.w3.org/1999/xlink" x="0px" y="0px"
	 width="64px" height="64px" viewBox="0 0 64 64" style="enable-background:new 0 0 64 64;" xml:space="preserve">
<g>
	<g>
		<path style="fill:#F6F6F6;" d="M43,31.2c-0.1-2.5-0.2-5-0.2-7.5c0-0.8,0-0.8,0.8-0.8c0.7,0,1.4,0,2.1,0c0.6,0,0.6,0.2,0.6,0.7
			c-0.1,2.4-0.1,4.7-0.2,7.1c0,0.4,0,0.5,0.5,0.4c2.3-0.8,4.5-1.6,6.8-2.5c0.4-0.2,0.6-0.1,0.7,0.3c0.2,0.8,0.5,1.5,0.8,2.3
			c0.1,0.4,0.1,0.5-0.3,0.6c-2.3,0.7-4.7,1.4-7,2.1c-0.2,0-0.3,0.1-0.5,0.2c1.4,1.8,2.8,3.6,4.2,5.5c0.9,1.1,0.9,1.1-0.3,1.9
			c-0.5,0.4-1,0.8-1.6,1.2c-1.6-2.3-3.1-4.6-4.7-6.9c-0.5,0.8-1.1,1.5-1.6,2.3c-0.9,1.4-1.9,2.8-2.8,4.2c-0.2,0.4-0.4,0.4-0.7,0.1
			c-0.6-0.5-1.3-1-1.9-1.4c-0.4-0.3-0.3-0.4-0.1-0.8c1.5-1.9,3-3.9,4.5-5.8c0.1-0.1,0.1-0.2,0.2-0.3c-1.6-0.5-3.1-0.9-4.6-1.4
			c-1-0.3-1.9-0.6-2.9-0.9c-0.4-0.1-0.4-0.2-0.3-0.6c0.3-0.8,0.5-1.6,0.8-2.4c0.1-0.4,0.3-0.4,0.6-0.3c2.3,0.8,4.6,1.7,6.9,2.5
			C42.7,31.1,42.8,31.1,43,31.2z"/>
		<path style="fill:#F6F6F6;" d="M12.3,50.8c-0.2-0.1-0.4-0.2-0.6-0.3c-0.5-0.2-1-0.5-1.5-0.7S9.7,49.4,9.9,49
			c3-6.1,5.9-12.2,8.9-18.3c2.7-5.6,5.5-11.2,8.2-16.9c0.3-0.5,0.5-0.5,0.9-0.3c0.5,0.3,1.1,0.6,1.7,0.8c0.4,0.2,0.5,0.3,0.3,0.7
			c-1.7,3.4-3.3,6.8-4.9,10.1c-4,8.3-8.1,16.7-12.1,25C12.5,50.5,12.5,50.8,12.3,50.8z"/>
	</g>
</g>
</svg>
