<?xml version="1.0" encoding="utf-8"?>
<!-- Generator: Adobe Illustrator 23.0.2, SVG Export Plug-In . SVG Version: 6.00 Build 0)  -->
<svg version="1.1" id="Layer_1" xmlns="http://www.w3.org/2000/svg" xmlns:xlink="http://www.w3.org/1999/xlink" x="0px" y="0px"
	 width="16px" height="16px" viewBox="0 0 16 16" style="enable-background:new 0 0 16 16;" xml:space="preserve">
<g>
	<path style="fill:#989b9b;" d="M4.5,11.4l0.3,0.5V12l0,0l0.5-0.3c0.5-0.4,1.1-0.7,1.6-1S8,10,8.5,9.7l0,0l0,0V9.6l0,0l0,0V9V8.5
		c0-0.1,0-0.1-0.1-0.2C8.2,8.2,7.9,8,7.5,7.7C7,7.4,6.4,7,5.8,6.6L4.9,6.1V6l0,0L4.8,6.1L4.6,6.4L4.2,7v0.1l0,0
		C4.8,7.4,5.3,7.7,5.8,8s1,0.6,1.5,0.9L7.4,9H7.3L5.8,9.9l-1.6,1l0,0V11L4.5,11.4z"/>
	<polygon style="fill:#989b9b;" points="13.8,12.9 8.9,12.9 8.9,12.9 8.9,13 8.9,13.9 8.9,13.9 8.9,13.9 13.8,13.9 13.9,13.9 
		13.9,13.9 13.9,13 13.9,12.9 	"/>
</g>
</svg>
