<?xml version="1.0" encoding="utf-8"?>
<!-- Generator: Adobe Illustrator 16.0.0, SVG Export Plug-In . SVG Version: 6.00 Build 0)  -->
<!DOCTYPE svg PUBLIC "-//W3C//DTD SVG 1.1//EN" "http://www.w3.org/Graphics/SVG/1.1/DTD/svg11.dtd">
<svg version="1.1" id="Layer_1" xmlns="http://www.w3.org/2000/svg" xmlns:xlink="http://www.w3.org/1999/xlink" x="0px" y="0px"
	 width="64.1px" height="64.1px" viewBox="0 0 64.1 64.1" enable-background="new 0 0 64.1 64.1" xml:space="preserve">
<g>
	<g>
		<path fill="#F6F6F6" d="M46.2,35.2C45.6,35,45.1,34.9,44.6,34.7C43.1,34.1,42.3,32.9,42.2,31.3C42.1,29.5,42.5,27.7,42.6,26
			c0.101-1.4,0.3-2.8,0.4-4.2c0.2-1.9-0.8-2.9-3.101-3.2c-0.5-0.1-1-0.1-1.5-0.1c-0.3,0-0.5,0-0.399-0.4c0-0.6,0-1.3,0-1.899
			c0-0.2,0-0.4,0.3-0.4c1.4,0,2.8,0.2,4.1,0.6c2.9,1,4,2.9,3.601,6c-0.3,2.4-0.601,4.7-0.8,7.101c0,0.3,0,0.5,0,0.8
			c0,1.5,0.6,2.5,2.1,3c1.1,0.4,2.2,0.5,3.4,0.5c0.5,0,0.699,0.1,0.6,0.6c-0.1,0.7,0.2,1.601-0.1,2c-0.301,0.4-1.301,0.2-2,0.2
			C48.4,36.7,47.7,36.8,47,37.2c-1.2,0.5-1.8,1.399-1.8,2.699c0,1.601,0.3,3.101,0.5,4.7c0.1,1.4,0.399,2.8,0.399,4.2
			c0.101,2.5-0.899,4.1-3.3,5c-1.5,0.6-3,0.7-4.5,0.8c-0.3,0-0.4-0.1-0.4-0.3c0-0.6,0-1.3,0-1.9C37.9,52.1,38,52,38.3,52
			c0.9,0,1.7-0.101,2.6-0.4c1.5-0.5,2.101-1.399,2-2.899C42.7,46.1,42.4,43.5,42.1,40.9C42,40.2,42,39.5,42.1,38.8
			c0.101-1.5,0.9-2.5,2.2-3C45,35.4,45.6,35.3,46.2,35.2z"/>
		<path fill="#F6F6F6" d="M18.4,35.2C20.7,35.8,21.7,36.7,22,38.5c0.1,0.7,0.1,1.5,0,2.2c-0.3,2.6-0.601,5.199-0.8,7.8
			c-0.2,1.899,0.8,3,3,3.2c0.5,0.1,1,0.1,1.6,0.1c0.3,0,0.4,0.1,0.4,0.4c0,0.6,0,1.199,0,1.899c0,0.3,0,0.4-0.4,0.4
			c-1.3,0-2.5-0.101-3.7-0.5c-3.2-0.9-4.5-3-4-6.3c0.3-2.301,0.601-4.601,0.8-6.9c0.301-2.8-0.699-3.9-3.6-4.2
			c-0.7-0.1-1.3-0.1-2-0.1c-0.4,0-0.5-0.101-0.5-0.5c0-0.5,0-1,0-1.601c0-0.5,0.1-0.699,0.7-0.699c1,0,2.1-0.101,3.1-0.4
			c1.8-0.5,2.5-1.4,2.4-3.2c-0.2-2.2-0.5-4.399-0.7-6.6c-0.1-0.9-0.3-1.9-0.2-2.8C18.2,19,19,17.6,20.5,16.8c1.7-1,3.6-1.1,5.5-1.2
			c0.3,0,0.3,0.2,0.3,0.4c0,0.6,0,1.3,0,1.899c0,0.4-0.1,0.4-0.4,0.4c-0.899,0-1.699,0.1-2.5,0.4c-1.6,0.5-2.199,1.399-2,3
			c0.301,2.6,0.5,5.199,0.801,7.8c0.1,0.6,0.1,1.3,0,1.899C22,33,21.3,34.1,19.8,34.6C19.2,34.9,18.9,35,18.4,35.2z"/>
	</g>
</g>
</svg>
