<?xml version="1.0" encoding="utf-8"?>
<!-- Generator: Adobe Illustrator 16.0.0, SVG Export Plug-In . SVG Version: 6.00 Build 0)  -->
<!DOCTYPE svg PUBLIC "-//W3C//DTD SVG 1.1//EN" "http://www.w3.org/Graphics/SVG/1.1/DTD/svg11.dtd">
<svg version="1.1" id="Layer_1" xmlns="http://www.w3.org/2000/svg" xmlns:xlink="http://www.w3.org/1999/xlink" x="0px" y="0px"
	 width="64px" height="64px" viewBox="0 0 64 64" enable-background="new 0 0 64 64" xml:space="preserve">
<g>
	<path fill="#989b9b" d="M38.135,51.149c0.161-0.023,0.321-0.044,0.48-0.064c0.489-0.064,0.951-0.124,1.415-0.241
		c1.343-0.342,1.895-1.167,1.789-2.675c-0.078-1.118-0.183-2.234-0.287-3.35c-0.092-0.98-0.184-1.962-0.258-2.942
		c-0.06-0.793-0.115-1.714-0.02-2.586c0.218-1.965,1.222-3.362,2.984-4.152c0.597-0.268,1.208-0.464,1.856-0.671
		c0.288-0.092,0.577-0.185,0.866-0.285l0.717-0.246l-1.176-0.29c-0.291-0.07-0.583-0.14-0.872-0.22
		c-3.493-0.98-4.847-3.208-4.389-7.224c0.217-1.913,0.406-3.926,0.579-6.156c0.152-1.967-0.553-2.911-2.357-3.154
		c-0.319-0.043-0.639-0.075-0.971-0.107l-0.316-0.032v-4.428c2.452,0.056,4.688,0.137,6.761,1.372
		c1.784,1.064,2.572,2.927,2.408,5.694c-0.153,2.567-0.346,4.668-0.607,6.613c-0.414,3.095,0.71,4.704,3.646,5.218
		c0.438,0.077,0.883,0.114,1.336,0.151c0.152,0.013,0.306,0.025,0.461,0.039c0.004,0.028,0.005,0.048,0.005,0.069l0.002,5.088
		c-0.227,0.03-0.452,0.059-0.676,0.085c-0.604,0.074-1.228,0.15-1.829,0.295c-2.301,0.551-3.247,2.031-2.978,4.654l0.057,0.519
		c0.043,0.376,0.086,0.752,0.111,1.13c0.043,0.646,0.096,1.291,0.148,1.937c0.126,1.562,0.257,3.176,0.256,4.76
		c-0.002,2.009-0.927,3.542-2.674,4.434c-2.066,1.052-4.3,1.126-6.47,1.17V51.149z"/>
	<path fill="#989b9b" d="M25.995,55.548c-2.475-0.062-4.812-0.121-6.939-1.537c-1.604-1.065-2.308-2.848-2.154-5.448
		c0.146-2.467,0.345-4.631,0.609-6.616c0.407-3.066-0.711-4.657-3.626-5.155c-0.435-0.075-0.875-0.111-1.335-0.149
		c-0.156-0.013-0.314-0.026-0.475-0.041v-5.156c0.225-0.03,0.45-0.057,0.673-0.084c0.601-0.072,1.223-0.148,1.822-0.289
		c2.229-0.525,3.154-1.893,3.001-4.434c-0.026-0.432-0.07-0.861-0.114-1.29l-0.071-0.723l-0.133-1.488
		c-0.116-1.276-0.232-2.553-0.31-3.832c-0.038-0.635,0.005-1.341,0.129-2.159c0.233-1.546,0.979-2.702,2.214-3.433
		c2.126-1.259,4.415-1.336,6.835-1.387v4.418l-0.29,0.031c-0.334,0.036-0.668,0.071-1.003,0.114c-1.836,0.235-2.55,1.192-2.387,3.2
		c0.076,0.944,0.167,1.887,0.256,2.831c0.104,1.084,0.207,2.167,0.29,3.253c0.058,0.758,0.105,1.65,0.008,2.519
		c-0.216,1.979-1.211,3.385-2.96,4.18c-0.604,0.275-1.229,0.476-1.833,0.668c-0.257,0.081-0.505,0.161-0.739,0.242l-0.601,0.208
		l0.599,0.217c0.274,0.099,0.56,0.192,0.852,0.29c0.676,0.223,1.375,0.454,2.041,0.771c1.783,0.854,2.71,2.426,2.68,4.544
		c-0.019,1.414-0.149,2.855-0.275,4.248c-0.053,0.586-0.105,1.17-0.151,1.756c-0.024,0.312-0.054,0.625-0.084,0.938
		c-0.047,0.497-0.095,0.993-0.119,1.491c-0.066,1.385,0.464,2.202,1.669,2.572c0.297,0.093,0.606,0.137,0.915,0.182l0.156,0.022
		c0.256,0.037,0.514,0.062,0.788,0.086l0.133,0.014v4.43L25.995,55.548z"/>
</g>
</svg>
