<?xml version="1.0" encoding="utf-8"?>
<!-- Generator: Adobe Illustrator 23.0.2, SVG Export Plug-In . SVG Version: 6.00 Build 0)  -->
<svg version="1.1" id="Layer_1" xmlns="http://www.w3.org/2000/svg" xmlns:xlink="http://www.w3.org/1999/xlink" x="0px" y="0px"
	 width="16px" height="16px" viewBox="0 0 16 16" style="enable-background:new 0 0 16 16;" xml:space="preserve">
<g>
	<g>
		<path style="fill:#989b9b;" d="M7.6,4.7c-0.9,0-1.5,0.2-1.4,0.8l0.2,2C6.5,8.5,6,8.9,5.1,9c0.9,0.1,1.3,0.5,1.2,1.5l-0.2,2
			c-0.1,0.6,0.6,0.8,1.4,0.8v0.8c-1.5,0-2.7-0.4-2.5-1.7l0.2-1.9C5.4,9.8,5,9.4,3.5,9.4V8.6c1.5,0,1.9-0.4,1.8-1.1L5.1,5.6
			c-0.2-1.3,1-1.7,2.5-1.7V4.7z"/>
		<path style="fill:#989b9b;" d="M11.9,5.6l-0.2,1.9c-0.1,0.7,0.4,1.1,1.8,1.1v0.8c-1.4,0-1.9,0.4-1.8,1.1l0.2,1.9
			c0.2,1.3-1,1.7-2.5,1.7v-0.8c0.9,0,1.5-0.2,1.4-0.8l-0.2-2C10.5,9.5,11,9.1,12,9c-1-0.1-1.5-0.5-1.3-1.5l0.2-2
			c0.1-0.6-0.6-0.8-1.4-0.8V3.9C10.9,3.9,12.1,4.3,11.9,5.6z"/>
	</g>
</g>
</svg>
