<?xml version="1.0" encoding="utf-8"?>
<!-- Generator: Adobe Illustrator 16.0.0, SVG Export Plug-In . SVG Version: 6.00 Build 0)  -->
<!DOCTYPE svg PUBLIC "-//W3C//DTD SVG 1.1//EN" "http://www.w3.org/Graphics/SVG/1.1/DTD/svg11.dtd">
<svg version="1.1" id="Layer_1" xmlns="http://www.w3.org/2000/svg" xmlns:xlink="http://www.w3.org/1999/xlink" x="0px" y="0px"
	 width="64px" height="64px" viewBox="0 0 64 64" enable-background="new 0 0 64 64" xml:space="preserve">
<g>
	<path fill="#6f7373" d="M33.498,52.236c-7.661,0-15.322,0.003-22.98-0.002c-2.32,0-3.054-0.733-3.056-3.088
		c-0.005-9.938-0.005-19.874,0-29.811c0.001-2.444,0.604-3.035,3.039-3.038c3.831-0.005,7.663-0.069,11.49,0.021
		c1.263,0.03,1.879-0.408,2.368-1.519c0.824-1.875,1.747-3.716,2.765-5.492c0.28-0.488,1.047-0.985,1.594-0.988
		c9.438-0.06,18.874-0.049,28.312-0.039c1.863,0.002,2.584,0.798,2.587,2.833c0.008,7.883,0.003,15.766,0.003,23.647
		c0,4.83,0.005,9.66-0.003,14.488c-0.003,2.293-0.679,2.967-2.968,2.969c-7.717,0.006-15.437,0.004-23.149,0.004
		C33.498,52.229,33.498,52.232,33.498,52.236z M55.467,12.2c-7.812,0-15.459-0.01-23.102,0.029
		c-0.399,0.002-0.957,0.331-1.164,0.674c-0.615,1.019-1.092,2.12-1.661,3.269c8.78,0,17.334,0,25.927,0
		C55.467,14.842,55.467,13.639,55.467,12.2z"/>
</g>
</svg>
