<?xml version="1.0" encoding="utf-8"?>
<!-- Generator: Adobe Illustrator 16.0.0, SVG Export Plug-In . SVG Version: 6.00 Build 0)  -->
<!DOCTYPE svg PUBLIC "-//W3C//DTD SVG 1.1//EN" "http://www.w3.org/Graphics/SVG/1.1/DTD/svg11.dtd">
<svg version="1.1" id="Layer_1" xmlns="http://www.w3.org/2000/svg" xmlns:xlink="http://www.w3.org/1999/xlink" x="0px" y="0px"
	 width="64px" height="64px" viewBox="0 0 64 64" enable-background="new 0 0 64 64" xml:space="preserve">
<g>
	<path fill="#6f7373" d="M0,26.739c2.562,0,4.885,0,7.456,0c0-2.68-0.001-5.267,0-7.854c0.001-2.263,0.451-2.739,2.703-2.748
		c3.999-0.016,7.999-0.036,11.998,0.018c1.027,0.014,1.598-0.296,2.023-1.258c0.833-1.871,1.741-3.718,2.77-5.487
		c0.312-0.532,1.124-1.092,1.711-1.096c9.441-0.068,18.886-0.054,28.327-0.043c1.866,0.002,2.489,0.635,2.489,2.504
		c0.008,12.942,0.007,25.884-0.002,38.825c-0.001,2.254-0.672,2.938-3.031,2.947c-6.107,0.031-12.22,0.018-18.33,0.014
		c-9.164-0.005-18.329-0.006-27.494-0.029c-2.435-0.008-2.83-0.328-3.537-2.639C4.747,42.271,2.419,34.646,0,26.739z M55.426,12.279
		c-7.819,0-15.473-0.016-23.121,0.042c-0.445,0.003-1.045,0.521-1.299,0.959c-0.999,1.72-1.957,3.471-2.791,5.276
		c-0.508,1.093-1.128,1.531-2.377,1.507c-4.329-0.083-8.66-0.058-12.989,0.007c-0.493,0.007-1.38,0.494-1.402,0.805
		c-0.131,1.913-0.064,3.838-0.064,5.855c0.954,0,1.612,0,2.273,0c11.047,0.014,22.094,0.02,33.142,0.051
		c1.819,0.005,4.097-0.518,5.331,0.366c1.144,0.819,1.177,3.191,1.693,4.882c0.463,1.507,0.922,3.015,1.382,4.522
		c0.073-0.025,0.146-0.051,0.223-0.077C55.426,28.492,55.426,20.508,55.426,12.279z"/>
</g>
</svg>
