<?xml version="1.0" encoding="utf-8"?>
<!-- Generator: Adobe Illustrator 23.0.2, SVG Export Plug-In . SVG Version: 6.00 Build 0)  -->
<svg version="1.1" id="Layer_1" xmlns="http://www.w3.org/2000/svg" xmlns:xlink="http://www.w3.org/1999/xlink" x="0px" y="0px"
	 width="16px" height="16px" viewBox="0 0 16 16" style="enable-background:new 0 0 16 16;" xml:space="preserve">
<g>
	<path style="fill:#989b9b;" d="M0.07,2.47c0.13-0.15,0.28-0.3,0.43-0.42C0.52,2.02,0.57,2,0.59,2c1.65,0,3.28,0,4.93,0
		c0.1,0,0.2,0.05,0.3,0.1c0.18,0.07,0.28,0.22,0.4,0.34c0.18,0.17,0.35,0.34,0.53,0.49c0.03,0.02,0.07,0.05,0.13,0.05
		c1.87,0,3.75,0,5.62,0c0.07,0,0.13,0.02,0.18,0.07c0.13,0.12,0.25,0.25,0.38,0.37c0.05,0.05,0.07,0.1,0.07,0.15
		c0,0.76,0,1.53,0,2.29c0,0.02,0,0.07,0,0.1c0.02,0,0.07,0,0.1,0c0.65,0,1.27,0,1.93,0c0.07,0,0.15,0.02,0.2,0.1
		c0.1,0.15,0.23,0.3,0.35,0.44c0.07,0.07,0.02,0.15,0,0.22c-0.07,0.22-0.15,0.42-0.25,0.64c-0.07,0.2-0.15,0.39-0.23,0.62
		c-0.07,0.17-0.13,0.34-0.2,0.54c-0.07,0.2-0.15,0.42-0.23,0.62c-0.07,0.17-0.13,0.34-0.2,0.54c-0.07,0.17-0.13,0.37-0.2,0.54
		c-0.07,0.2-0.15,0.42-0.25,0.62c-0.07,0.17-0.15,0.37-0.2,0.54c-0.07,0.17-0.13,0.37-0.2,0.54c-0.07,0.2-0.15,0.39-0.23,0.59
		c-0.07,0.17-0.15,0.37-0.2,0.54c-0.05,0.15-0.1,0.3-0.18,0.44c-0.02,0.07-0.13,0.12-0.2,0.17s-0.15,0.1-0.2,0.15
		c-0.07,0.07-0.15,0.07-0.25,0.07c-3.95,0-7.9,0-11.85,0c-0.07,0-0.13-0.02-0.15-0.07c-0.13-0.12-0.25-0.27-0.38-0.39
		C0.07,9.75,0.07,6.11,0.07,2.47z M14.59,6.95c-0.05,0-0.07,0-0.1,0c-1.88,0-3.78,0-5.65,0c-0.05,0-0.1,0.02-0.13,0.05
		C8.47,7.24,8.24,7.46,7.99,7.71c-0.05,0.05-0.1,0.1-0.18,0.12c-0.15,0.07-0.3,0.1-0.47,0.1c-1.2,0-2.42,0-3.63,0
		c-0.25,0-0.5,0-0.75,0c-0.05,0-0.08,0.02-0.1,0.07C2.82,8.18,2.77,8.33,2.69,8.5C2.64,8.67,2.57,8.84,2.52,9.01
		c-0.05,0.17-0.1,0.34-0.17,0.52C2.29,9.7,2.22,9.88,2.17,10.02c-0.05,0.17-0.13,0.34-0.17,0.52s-0.13,0.34-0.17,0.52
		c-0.05,0.17-0.1,0.34-0.17,0.52c-0.05,0.17-0.1,0.34-0.18,0.52c-0.05,0.17-0.13,0.34-0.17,0.52c-0.02,0.1-0.05,0.17-0.1,0.3
		c0.05,0,0.1,0,0.13,0c3.6,0,7.17,0,10.77,0c0.02,0,0.05,0,0.07,0s0.05-0.02,0.07-0.05c0.07-0.17,0.13-0.32,0.2-0.49
		c0.1-0.25,0.2-0.49,0.3-0.76c0.07-0.2,0.15-0.39,0.23-0.57c0.07-0.2,0.18-0.42,0.25-0.62c0.1-0.22,0.18-0.44,0.27-0.66
		c0.07-0.2,0.15-0.39,0.23-0.57c0.07-0.2,0.15-0.39,0.23-0.59c0.07-0.2,0.15-0.39,0.23-0.59c0.07-0.2,0.15-0.39,0.23-0.59
		C14.47,7.24,14.52,7.09,14.59,6.95z M12.09,3.97c-0.05,0-0.07,0-0.1,0c-1.77,0-3.53,0-5.3,0c-0.07,0-0.15,0-0.2-0.02
		C6.39,3.9,6.27,3.87,6.17,3.77c-0.25-0.25-0.5-0.49-0.75-0.74C5.37,2.98,5.34,2.98,5.27,2.98c-1.38,0-2.78,0-4.15,0
		c-0.02,0-0.05,0-0.08,0c0,2.41,0,4.8,0,7.21c0.02-0.02,0.05-0.07,0.05-0.1c0.08-0.22,0.15-0.47,0.23-0.69s0.17-0.47,0.25-0.69
		c0.08-0.2,0.13-0.39,0.2-0.62c0.07-0.22,0.15-0.42,0.23-0.64c0.03-0.1,0.05-0.17,0.15-0.25c0.08-0.05,0.17-0.1,0.25-0.17
		c0.1-0.07,0.2-0.1,0.33-0.1c1.53,0,3.03,0,4.55,0c0.05,0,0.1-0.02,0.13-0.05c0.18-0.17,0.35-0.34,0.52-0.52
		c0.12-0.1,0.2-0.25,0.37-0.32c0.15-0.05,0.3-0.1,0.48-0.1c1.07,0,2.18,0,3.25,0c0.02,0,0.07,0,0.1,0
		C12.09,5.3,12.09,4.63,12.09,3.97z"/>
</g>
</svg>
