<?xml version="1.0" encoding="utf-8"?>
<!-- Generator: Adobe Illustrator 23.0.2, SVG Export Plug-In . SVG Version: 6.00 Build 0)  -->
<svg version="1.1" id="Layer_1" xmlns="http://www.w3.org/2000/svg" xmlns:xlink="http://www.w3.org/1999/xlink" x="0px" y="0px"
	 viewBox="0 0 16 16" style="enable-background:new 0 0 16 16;" xml:space="preserve">
<style type="text/css">
	.st0{fill:#c5c5c5;}
</style>
<path class="st0" d="M13,3.5V6h-1V4H6.5L6.1459999,3.8540001L5.2930002,3H1v7.4180002L0.025,13.342L0.5,14L0,13.5v-11L0.5,2h5
	l0.3540001,0.1459999L6.7069998,3H12.5L13,3.5z"/>
<path class="st0" d="M15.151,6H8.50002L8.1460199,6.1459999L7.2930198,7H2.50002L2.0250199,7.342l-1.9999955,6L0.500024,14
	h12.015976L13,13.6289997l2.6339998-6.9999995L15.151,6z M12.1330004,13H1.19302l1.6669999-5H7.50002l0.3540001-0.1459999
	L8.7070198,7H14.5L12.1330004,13z"/>
</svg>
