<?xml version="1.0" encoding="utf-8"?>
<!-- Generator: Adobe Illustrator 23.0.2, SVG Export Plug-In . SVG Version: 6.00 Build 0)  -->
<svg version="1.1" id="Layer_1" xmlns="http://www.w3.org/2000/svg" xmlns:xlink="http://www.w3.org/1999/xlink" x="0px" y="0px"
	 width="16px" height="16px" viewBox="0 0 16 16" style="enable-background:new 0 0 16 16;" xml:space="preserve">
<g>
	<path style="fill:#989b9b;" d="M7.13,14c-2.15,0-4.29,0-6.44,0c-0.07,0-0.12-0.02-0.17-0.07c-0.12-0.13-0.26-0.25-0.38-0.38
		c-0.02-0.02-0.04-0.07-0.04-0.1c0-2.3,0-4.59,0-6.89c0-1.31,0-2.63,0-3.93c0-0.07,0.02-0.11,0.06-0.16c0.13-0.13,0.27-0.27,0.4-0.4
		c0.03-0.02,0.07-0.05,0.1-0.05c1.64,0,3.28,0,4.92,0c0.08,0,0.15,0.04,0.22,0.07c0.15,0.06,0.25,0.14,0.34,0.24
		c0.21,0.22,0.44,0.43,0.65,0.64c0.04,0.04,0.09,0.06,0.14,0.06c2.22,0,4.43,0,6.65,0c0.07,0,0.12,0.02,0.17,0.07
		c0.13,0.13,0.26,0.25,0.38,0.38c0.02,0.02,0.04,0.07,0.04,0.1c0,1.79,0,3.6,0,5.39c0,1.48,0,2.95,0,4.43
		c0,0.07-0.02,0.11-0.06,0.16c-0.13,0.13-0.26,0.25-0.39,0.39c-0.04,0.04-0.08,0.06-0.14,0.06C11.43,14,9.28,14,7.13,14z M1.1,13
		c0.04,0,0.06,0,0.09,0c3.96,0,7.92,0,11.88,0c0.1,0,0.1,0,0.1-0.1c0-0.63,0-1.24,0-1.87c0-1.64,0-3.3,0-4.94
		c0-0.07-0.01-0.11-0.09-0.11c-2.06,0-4.12,0-6.18,0C6.86,5.98,6.82,6,6.79,6.02C6.64,6.18,6.48,6.35,6.32,6.5
		c-0.16,0.15-0.27,0.34-0.5,0.41C5.73,6.94,5.66,6.99,5.55,6.99c-0.55,0-1.1,0-1.65,0c-0.9,0-1.8,0-2.7,0c-0.07,0-0.1,0.02-0.1,0.09
		c0,0.16,0,0.33,0,0.49c0,1.77,0,3.56,0,5.33C1.1,12.93,1.1,12.96,1.1,13z M13.17,3.98c-0.04,0-0.07,0-0.1,0c-2.06,0-4.11,0-6.17,0
		C6.76,3.98,6.62,4,6.48,3.92C6.4,3.87,6.3,3.85,6.22,3.77c-0.25-0.26-0.5-0.5-0.75-0.75C5.45,3,5.4,2.98,5.37,2.98
		c-1.4,0-2.79,0-4.19,0C1.12,2.98,1.1,3,1.1,3.06c0,0.95,0,1.9,0,2.85c0,0.07,0.02,0.08,0.09,0.08c1.39,0,2.78,0,4.17,0
		c0.03,0,0.08-0.02,0.1-0.04C5.63,5.78,5.8,5.6,5.97,5.44C6.1,5.33,6.2,5.17,6.38,5.1c0.15-0.06,0.29-0.11,0.46-0.11
		c2.08,0.01,4.15,0,6.23,0c0.03,0,0.07,0,0.1,0C13.17,4.65,13.17,4.32,13.17,3.98z"/>
</g>
</svg>
