<?xml version="1.0" encoding="utf-8"?>
<!-- Generator: Adobe Illustrator 23.0.2, SVG Export Plug-In . SVG Version: 6.00 Build 0)  -->
<svg version="1.1" id="Layer_1" xmlns="http://www.w3.org/2000/svg" xmlns:xlink="http://www.w3.org/1999/xlink" x="0px" y="0px"
	 width="16px" height="16px" viewBox="0 0 16 16" style="enable-background:new 0 0 16 16;" xml:space="preserve">
<g>
	<path style="fill-rule:evenodd;clip-rule:evenodd;fill:#989b9b;" d="M4.1,14C4,14,4,14,3.9,13.9C3.6,13.6,3.3,13.3,3,13v-0.1
		c0,0,0-6.3,0-8V4.8C3.3,4.6,3.7,4.3,3.9,4C4,4,4,4,4,4c1.5,0,3,0,4.5,0s3,0,4.5,0h0.1c0.3,0.3,0.6,0.6,0.9,0.9V5c0,1.7,0,8,0,8
		c0,0.1,0,0.1,0,0.1c-0.3,0.3-0.6,0.6-0.9,0.9c-0.1,0-0.1,0-0.2,0c-1.1,0-2.3,0-3.4,0h-2C6.4,14,5.2,14,4.1,14z M6,9.9L6,9.9
		c-0.4,0.4-0.8,0.8-1.2,1.2l-0.3,0.3c-0.1,0.1-0.3,0.3-0.4,0.4C4,11.9,4,11.9,4,12c0,0.3,0,0.5,0,0.8V13c0,0,0,0,0,0.1l0,0l0,0h9
		v-0.6v-1.6c0-0.1-0.1-0.1-0.1-0.2c-0.9-0.8-1.8-2-2.7-2.9l0,0V7.7l-3.1,3L6,9.9L6,9.9z M4,10.6L4,10.6L4,10.6L4,10.6
		C4.1,10.6,4.1,10.6,4,10.6l1.6-1.5C5.7,9,5.7,9,5.8,9c0.1,0,0.3,0,0.3,0c0.1,0,0.2,0,0.2,0h0.1c0.2,0.1,0.3,0.3,0.4,0.4l0.1,0.1
		l0,0L7,9.4c0,0,0,0,0.1,0l1.3-1.3c0.5-0.5,1-1,1.4-1.4h0.1H10h0.2c0.1,0,0.1,0,0.1,0l0,0c0.1,0,0.1,0,0.2,0.1C11,7.2,11.6,8,12,8.5
		l0.9,0.9l0,0l0,0l0,0H13V5H4V10.6z"/>
</g>
</svg>
