<?xml version="1.0" encoding="utf-8"?>
<!-- Generator: Adobe Illustrator 16.0.0, SVG Export Plug-In . SVG Version: 6.00 Build 0)  -->
<!DOCTYPE svg PUBLIC "-//W3C//DTD SVG 1.1//EN" "http://www.w3.org/Graphics/SVG/1.1/DTD/svg11.dtd">
<svg version="1.1" id="Layer_1" xmlns="http://www.w3.org/2000/svg" xmlns:xlink="http://www.w3.org/1999/xlink" x="0px" y="0px"
	 width="64px" height="64px" viewBox="0 0 64 64" enable-background="new 0 0 64 64" xml:space="preserve">
<g>
	<path fill="#989b9b" d="M21.33,54.832l0.035-0.122c0.058-0.206,0.111-0.393,0.17-0.578l2.228-6.932
		c2.193-6.817,4.385-13.635,6.557-20.458c0.207-0.649,0.405-0.868,0.785-0.868c0.069,0,0.144,0.007,0.225,0.021
		c0.138,0.025,0.279,0.033,0.421,0.033c0.109,0,0.22-0.005,0.331-0.01c0.106-0.005,0.212-0.009,0.319-0.009h0.246l-0.051-0.249
		c-1.012-4.972-3.802-7.708-8.527-8.359l0.671-4.18c6.25,0.886,10.017,3.695,11.847,8.829c0.953,2.67,1.626,5.526,2.277,8.288
		l0.491,2.071c1.13,4.763,2.299,9.688,4.101,14.303c0.552,1.41,1.154,2.738,1.791,3.944c0.452,0.854,0.962,1.652,1.502,2.499
		c0.2,0.313,0.402,0.632,0.606,0.959l-5.189,1.966c-1.405-2.068-2.573-4.438-3.671-7.439c-2.029-5.56-3.188-11.39-4.139-16.861
		c-0.06-0.331-0.127-0.704-0.329-1.102l-0.229-0.452l-7.39,26.018L21.33,54.832z"/>
</g>
</svg>
