<?xml version="1.0" encoding="utf-8"?>
<!-- Generator: Adobe Illustrator 16.0.0, SVG Export Plug-In . SVG Version: 6.00 Build 0)  -->
<!DOCTYPE svg PUBLIC "-//W3C//DTD SVG 1.1//EN" "http://www.w3.org/Graphics/SVG/1.1/DTD/svg11.dtd">
<svg version="1.1" id="Layer_1" xmlns="http://www.w3.org/2000/svg" xmlns:xlink="http://www.w3.org/1999/xlink" x="0px" y="0px"
	 width="64px" height="64px" viewBox="0 0 64 64" enable-background="new 0 0 64 64" xml:space="preserve">
<g>
	<path fill-rule="evenodd" clip-rule="evenodd" fill="#F6F6F6" d="M42.378,48.215c-1.114,0.41-2.161,0.814-3.226,1.164
		c-0.142,0.047-0.461-0.137-0.552-0.297c-0.965-1.695-2.027-3.351-2.817-5.127c-1.756-3.951-2.749-8.146-3.651-12.361
		c-0.059-0.273-0.124-0.545-0.322-0.832c-2.205,6.236-4.409,12.472-6.624,18.734c-1.079-0.239-2.109-0.468-3.229-0.716
		c0.091-0.266,0.163-0.493,0.246-0.716c2.393-6.452,4.798-12.9,7.166-19.362c0.237-0.646,0.515-0.988,1.224-0.84
		c0.117,0.024,0.246-0.009,0.445-0.021c-0.492-1.64-1.104-3.164-2.375-4.33c-1.277-1.171-2.881-1.603-4.593-1.907
		c0.171-0.885,0.332-1.713,0.505-2.606c3.46,0.468,6.474,1.611,8.353,4.771c1.045,1.757,1.61,3.688,2.085,5.655
		c0.985,4.084,1.982,8.165,3.49,12.098C39.431,43.941,40.543,46.255,42.378,48.215z"/>
</g>
</svg>
