<?xml version="1.0" encoding="utf-8"?>
<!-- Generator: Adobe Illustrator 16.0.0, SVG Export Plug-In . SVG Version: 6.00 Build 0)  -->
<!DOCTYPE svg PUBLIC "-//W3C//DTD SVG 1.1//EN" "http://www.w3.org/Graphics/SVG/1.1/DTD/svg11.dtd">
<svg version="1.1" id="Layer_1" xmlns="http://www.w3.org/2000/svg" xmlns:xlink="http://www.w3.org/1999/xlink" x="0px" y="0px"
	 width="64px" height="64px" viewBox="0 0 64 64" enable-background="new 0 0 64 64" xml:space="preserve">
<g>
	<g>
		<path fill="#989b9b" d="M23.4,15.6c0.101,0.101,0.2,0.2,0.301,0.3c0.399,0.4,0.699,0.801,1.1,1.2c0.3,0.3,0.3,0.4,0,0.7
			c-1.4,1.2-2.7,2.5-3.9,4C18.3,25,17,28.7,16.7,32.9C16.5,36,16.6,39.1,17.5,42.2c0.8,3,2.5,5.5,4.5,7.8c0.899,1,1.8,1.899,2.8,2.8
			c0.3,0.2,0.3,0.4,0,0.6c-0.5,0.5-0.9,1.301-1.4,1.4c-0.6,0-1.1-0.8-1.6-1.2c-2.7-2.3-5-4.899-6.6-8.2c-1.801-3.8-2.2-7.8-2-11.899
			c0.3-6.7,3.5-11.9,8.5-16.2c0.5-0.4,1-0.8,1.5-1.3C23.2,15.7,23.3,15.7,23.4,15.6z"/>
		<path fill="#989b9b" d="M51.1,36.5c0.101,5.2-2.2,10.7-6.899,15.2c-1,1-2.101,1.899-3.2,2.8c-0.2,0.2-0.4,0.2-0.5,0
			c-0.4-0.4-0.7-0.8-1.101-1.2C39,53,39.2,52.8,39.5,52.5c1.7-1.5,3.2-3.101,4.6-5C46.2,44.6,47.2,41.4,47.5,37.9
			c0.3-3.3,0.1-6.699-0.8-9.899c-1-3.5-3.101-6.3-5.601-8.8C40.6,18.7,40,18.1,39.4,17.6c-0.199-0.2-0.3-0.3,0-0.6
			c0.4-0.4,0.801-0.9,1.2-1.3c0.2-0.2,0.3-0.2,0.5,0c3.101,2.6,6,5.399,7.8,9C50.5,28,51.1,31.5,51.1,36.5z"/>
	</g>
</g>
</svg>
