<?xml version="1.0" encoding="utf-8"?>
<!-- Generator: Adobe Illustrator 23.0.2, SVG Export Plug-In . SVG Version: 6.00 Build 0)  -->
<svg version="1.1" id="Layer_1" xmlns="http://www.w3.org/2000/svg" xmlns:xlink="http://www.w3.org/1999/xlink" x="0px" y="0px"
	 width="16px" height="16px" viewBox="0 0 16 16" style="enable-background:new 0 0 16 16;" xml:space="preserve">
<g>
	<path style="fill:#989b9b;" d="M5.1,8.5c0-2.1,0.5-3.8,1.7-5.3L6.9,3H6.7H5.8H5.7l0,0C4.5,4.6,3.9,6.4,3.9,8.5s0.6,3.9,1.8,5.4V14
		l0,0h0.9h0.3l-0.2-0.2C5.7,12.3,5.1,10.5,5.1,8.5z"/>
</g>
<g>
	<path style="fill:#989b9b;" d="M10.3,13.8L10.1,14h0.3h0.9h0.1l0.1-0.1c1.2-1.5,1.8-3.3,1.8-5.4S12.7,4.6,11.5,3l0,0h-0.1h-1.1
		h-0.2l0.1,0.2c1.1,1.5,1.7,3.2,1.7,5.3C11.9,10.5,11.3,12.3,10.3,13.8z"/>
</g>
</svg>
