<?xml version="1.0" encoding="utf-8"?>
<!-- Generator: Adobe Illustrator 16.0.0, SVG Export Plug-In . SVG Version: 6.00 Build 0)  -->
<!DOCTYPE svg PUBLIC "-//W3C//DTD SVG 1.1//EN" "http://www.w3.org/Graphics/SVG/1.1/DTD/svg11.dtd">
<svg version="1.1" id="Layer_1" xmlns="http://www.w3.org/2000/svg" xmlns:xlink="http://www.w3.org/1999/xlink" x="0px" y="0px"
	 width="64px" height="64px" viewBox="0 0 64 64" enable-background="new 0 0 64 64" xml:space="preserve">
<g>
	<path fill="#F6F6F6" d="M32.279,47.264c5.661,0,11.323,0.018,16.983-0.012c1.229-0.006,1.75,0.09,1.747,0.711
		c-0.012,2.146,0.05,2.141-4.899,2.139c-10.313-0.004-20.628-0.014-30.943,0.016c-1.477,0.004-2.077-0.102-2.038-0.84
		c0.106-2.014,0.021-2.014,4.624-2.014C22.594,47.264,27.438,47.264,32.279,47.264z"/>
	<g>
		<path fill="#F6F6F6" d="M29.277,38.374c4.659,0,9.319,0.017,13.977-0.01c1.014-0.007,1.439,0.088,1.438,0.709
			c-0.01,2.146,0.041,2.141-4.031,2.139c-8.488-0.004-16.978-0.014-25.466,0.017c-1.215,0.004-1.709-0.101-1.677-0.838
			c0.087-2.015,0.018-2.017,3.806-2.017C21.306,38.374,25.293,38.374,29.277,38.374z"/>
	</g>
	<g>
		<path fill="#F6F6F6" d="M32.668,20.276c5.66,0,11.322,0.016,16.982-0.01c1.229-0.006,1.75,0.088,1.748,0.709
			c-0.012,2.146,0.049,2.141-4.9,2.139C36.184,23.11,25.868,23.1,15.553,23.13c-1.477,0.004-2.077-0.1-2.038-0.838
			c0.106-2.014,0.021-2.016,4.624-2.016C22.983,20.276,27.827,20.276,32.668,20.276z"/>
	</g>
	<g>
		<path fill="#F6F6F6" d="M32.668,29.276c5.66,0,11.322,0.016,16.982-0.01c1.229-0.006,1.75,0.088,1.748,0.708
			c-0.012,2.146,0.049,2.142-4.9,2.14c-10.314-0.005-20.63-0.015-30.945,0.016c-1.477,0.004-2.077-0.1-2.038-0.838
			c0.106-2.014,0.021-2.016,4.624-2.016C22.983,29.276,27.827,29.276,32.668,29.276z"/>
	</g>
</g>
</svg>
