<?xml version="1.0" encoding="utf-8"?>
<!-- Generator: Adobe Illustrator 16.0.0, SVG Export Plug-In . SVG Version: 6.00 Build 0)  -->
<!DOCTYPE svg PUBLIC "-//W3C//DTD SVG 1.1//EN" "http://www.w3.org/Graphics/SVG/1.1/DTD/svg11.dtd">
<svg version="1.1" id="Layer_1" xmlns="http://www.w3.org/2000/svg" xmlns:xlink="http://www.w3.org/1999/xlink" x="0px" y="0px"
	 width="64.1px" height="64.1px" viewBox="0 0 64.1 64.1" enable-background="new 0 0 64.1 64.1" xml:space="preserve">
<path fill="#F6F6F6" d="M43.4,26.7c-0.8,0-1.698-0.102-2.6,0c-0.6,0.1-0.7-0.102-0.6-0.7c0.398-2.3,0.698-4.5,1-6.8
	c0.1-0.302,0.1-0.5-0.4-0.5c-0.8,0-1.7,0-2.5,0c-0.4,0-0.5,0.198-0.5,0.5c-0.3,2.398-0.7,4.698-1,7.1c0,0.3,0,0.5-0.4,0.5
	c-2.198,0-4.398,0-6.6,0c0.3-2.6,0.6-5.1,1.1-7.8c0.102-0.5,0-0.5-0.398-0.5c-0.7,0-1.5,0.1-2.2,0c-0.6-0.102-0.7,0.2-0.8,0.7
	c-0.3,2.3-0.602,4.5-0.9,6.8c-0.1,0.398-0.2,0.5-0.6,0.5c-1.102,0-2.102,0-3.2,0c-0.5,0-0.6,0.2-0.6,0.6c0,0.7,0,1.4,0,2.102
	c0,0.398,0.1,0.5,0.5,0.5c1.1,0,2.3,0,3.398,0C25.6,33.1,25.2,36.4,24.7,39.8c0,0.4-0.2,0.4-0.5,0.4c-1,0-2.102,0-3.2,0
	c-0.4-0.102-0.5,0-0.5,0.398c0,0.7,0,1.4,0,2.102c0,0.5,0.1,0.5,0.5,0.5c0.8,0,1.7,0,2.6,0c0.5,0,0.7,0.198,0.602,0.698
	C23.9,46.3,23.6,48.6,23.3,51c0,0.3,0.1,0.398,0.4,0.398c0.698,0,1.5-0.1,2.198,0C26.5,51.5,26.7,51.3,26.7,50.7
	c0-0.102,0-0.2,0-0.302C27,48.2,27.3,45.9,27.6,43.7c0-0.2,0.102-0.4,0.4-0.4c2.1,0,4.1,0,6.2,0c0.3,0,0.3,0.1,0.3,0.4
	c-0.2,0.898-0.3,1.898-0.4,2.8c-0.2,1.7-0.398,3.3-0.6,5c1,0,1.898,0,2.898,0c0.4,0,0.5-0.2,0.5-0.5c0.302-2.4,0.602-4.8,0.9-7.2
	c0-0.3,0.2-0.4,0.5-0.4c1.1,0,2.3,0,3.4,0c0.3,0,0.398-0.198,0.398-0.5c0-0.698,0-1.398,0-2.1c0-0.5-0.1-0.5-0.5-0.5c-1,0-2,0-3,0
	c-0.2,0-0.3,0-0.3-0.3c0.5-3.3,0.9-6.5,1.3-9.8c0.102-0.302,0.2-0.4,0.5-0.4c1.102,0,2.2,0,3.3,0c0.4,0,0.5-0.1,0.5-0.5
	c0-0.7,0-1.4,0-2.1C43.9,26.8,43.8,26.7,43.4,26.7z M36.3,30.5c-0.3,2.2-0.6,4.398-0.9,6.6c-0.1,1-0.3,2-0.398,3
	c0,0.3-0.102,0.4-0.4,0.4C33.5,40.4,32.4,40.4,31.4,40.4s-2,0-3,0C28,40.4,27.9,40.3,28,40c0.398-2.602,0.7-5.3,1.1-7.9
	c0.102-0.6,0.2-1.1,0.2-1.7c0-0.398,0.2-0.5,0.6-0.5c2,0,3.9,0,5.9,0C36.3,29.9,36.4,30,36.3,30.5z"/>
</svg>
