<?xml version="1.0" encoding="utf-8"?>
<!-- Generator: Adobe Illustrator 23.0.2, SVG Export Plug-In . SVG Version: 6.00 Build 0)  -->
<svg version="1.1" id="Layer_1" xmlns="http://www.w3.org/2000/svg" xmlns:xlink="http://www.w3.org/1999/xlink" x="0px" y="0px"
	 viewBox="0 0 16 16" style="enable-background:new 0 0 16 16;" xml:space="preserve">
<style type="text/css">
	.st0{fill:#c5c5c5;}
</style>
<g>
	<path class="st0" d="M9.7291641,9.6999998c0.4236116,0,0.8472242,0,1.2708359,0v0.6999998H9.6000004l-0.3000002,2.5H8.6000004
		l0.3000002-2.5H6.5999999l-0.3000002,2.5H5.5999999l0.3000002-2.5H4.6999998V9.6999998c0.4261093,0,0.8522191,0,1.2783284,0
		C6.1188855,8.6333332,6.2594428,7.5666666,6.4000001,6.5H5.1999998V5.6999998H6.5l0.3000002-2.4000006h0.8000002
		L7.3000002,5.6999998h2.3000002l0.3000002-2.4000006h0.8000002l-0.3000002,2.4000006h1.1999998V6.5
		c-0.4611349-0.0034885-0.9222708-0.0069761-1.3834057-0.0104647C10.0541182,7.5596905,9.8916407,8.6298447,9.7291641,9.6999998z
		 M8.968297,9.6999998C9.1121979,8.6333332,9.2560987,7.5666666,9.3999996,6.5H7.1999998
		C7.039463,7.5666666,6.8789268,8.6333332,6.71839,9.6999998C7.468359,9.6999998,8.2183285,9.6999998,8.968297,9.6999998z"/>
</g>
<path class="st0" d="M12.4118423,8.9776316"/>
</svg>
