<?xml version="1.0" encoding="utf-8"?>
<!-- Generator: Adobe Illustrator 16.0.0, SVG Export Plug-In . SVG Version: 6.00 Build 0)  -->
<!DOCTYPE svg PUBLIC "-//W3C//DTD SVG 1.1//EN" "http://www.w3.org/Graphics/SVG/1.1/DTD/svg11.dtd">
<svg version="1.1" id="Layer_1" xmlns="http://www.w3.org/2000/svg" xmlns:xlink="http://www.w3.org/1999/xlink" x="0px" y="0px"
	 width="64.1px" height="64.1px" viewBox="0 0 64.1 64.1" style="enable-background:new 0 0 64.1 64.1;" xml:space="preserve">
<g>
	<g>
		<path style="fill:#FFFFFF;" d="M14.5,32.2c4.1,2.6,8.2,5.1,12.2,7.6c0.5,0.3,1.1,0.7,1.6,1c0.2,0.1,0.2,0.2,0.1,0.4
			c-0.5,0.6-1,1.3-1.4,2c-0.2,0.4-0.4,0.1-0.6,0c-2.4-1.5-4.7-2.9-7.1-4.4s-4.8-3-7.2-4.5c-0.4-0.2-0.5-0.4-0.5-0.8
			c0-0.9,0-1.7,0-2.6c0-0.3,0.1-0.4,0.3-0.6c4.9-3,9.8-6,14.6-9c0.3-0.2,0.5-0.1,0.7,0.2c0.3,0.5,0.6,1.1,1,1.6
			c0.3,0.4,0.3,0.7-0.2,1c-3.6,2.2-7.1,4.3-10.6,6.5C16.5,31,15.5,31.6,14.5,32.2z"/>
		<path style="fill:#FFFFFF;" d="M49.7,32.2c-2.8-1.7-5.6-3.5-8.4-5.2c-1.7-1.1-3.5-2.1-5.2-3.2c-0.5-0.3-0.5-0.5-0.2-0.9
			c0.4-0.5,0.7-1.1,1.1-1.7c0.2-0.3,0.3-0.3,0.6-0.2c4.9,3.1,9.8,6.1,14.7,9.1c0.2,0.1,0.3,0.3,0.3,0.6c0,0.9,0,1.8,0,2.7
			c0,0.3-0.1,0.4-0.3,0.5c-4.9,3-9.7,6-14.5,9.1c-0.3,0.2-0.4,0.1-0.6-0.1c-0.4-0.5-0.8-1.1-1.2-1.6c-0.3-0.4-0.3-0.6,0.1-0.8
			c4-2.5,8.1-5,12.1-7.5C48.7,32.8,49.2,32.5,49.7,32.2z"/>
	</g>
</g>
</svg>
