<?xml version="1.0" encoding="utf-8"?>
<!-- Generator: Adobe Illustrator 16.0.0, SVG Export Plug-In . SVG Version: 6.00 Build 0)  -->
<!DOCTYPE svg PUBLIC "-//W3C//DTD SVG 1.1//EN" "http://www.w3.org/Graphics/SVG/1.1/DTD/svg11.dtd">
<svg version="1.1" id="Layer_1" xmlns="http://www.w3.org/2000/svg" xmlns:xlink="http://www.w3.org/1999/xlink" x="0px" y="0px"
	 width="64.1px" height="64.1px" viewBox="0 0 64.1 64.1" style="enable-background:new 0 0 64.1 64.1;" xml:space="preserve">
<g>
	<g>
		<path style="fill:#FFFFFF;" d="M29.8,23.8c2.2,0,4.4,0,6.6,0c0.4,0,0.4-0.2,0.4-0.5c0.3-2.4,0.7-4.7,1-7.1c0-0.3,0.1-0.5,0.5-0.5
			c0.8,0,1.7,0,2.5,0c0.5,0,0.5,0.2,0.4,0.5c-0.3,2.3-0.6,4.5-1,6.8c-0.1,0.6,0,0.8,0.6,0.7c0.9-0.1,1.8,0,2.6,0
			c0.4,0,0.5,0.1,0.5,0.5c0,0.7,0,1.4,0,2.1c0,0.4-0.1,0.5-0.5,0.5c-1.1,0-2.2,0-3.3,0c-0.3,0-0.4,0.1-0.5,0.4
			c-0.4,3.3-0.8,6.5-1.3,9.8c0,0.3,0.1,0.3,0.3,0.3c1,0,2,0,3,0c0.4,0,0.5,0,0.5,0.5c0,0.7,0,1.4,0,2.1c0,0.3-0.1,0.5-0.4,0.5
			c-1.1,0-2.3,0-3.4,0c-0.3,0-0.5,0.1-0.5,0.4c-0.3,2.4-0.6,4.8-0.9,7.2c0,0.3-0.1,0.5-0.5,0.5c-1,0-1.9,0-2.9,0
			c0.2-1.7,0.4-3.3,0.6-5c0.1-0.9,0.2-1.9,0.4-2.8c0-0.3,0-0.4-0.3-0.4c-2.1,0-4.1,0-6.2,0c-0.3,0-0.4,0.2-0.4,0.4
			c-0.3,2.2-0.6,4.5-0.9,6.7c0,0.1,0,0.2,0,0.3c0,0.6-0.2,0.8-0.8,0.7c-0.7-0.1-1.5,0-2.2,0c-0.3,0-0.4-0.1-0.4-0.4
			c0.3-2.4,0.6-4.7,0.9-7.1c0.1-0.5-0.1-0.7-0.6-0.7c-0.9,0-1.8,0-2.6,0c-0.4,0-0.5,0-0.5-0.5c0-0.7,0-1.4,0-2.1
			c0-0.4,0.1-0.5,0.5-0.4c1.1,0,2.2,0,3.2,0c0.3,0,0.5,0,0.5-0.4c0.5-3.4,0.9-6.7,1.4-10.1c-1.1,0-2.3,0-3.4,0
			c-0.4,0-0.5-0.1-0.5-0.5c0-0.7,0-1.4,0-2.1c0-0.4,0.1-0.6,0.6-0.6c1.1,0,2.1,0,3.2,0c0.4,0,0.5-0.1,0.6-0.5
			c0.3-2.3,0.6-4.5,0.9-6.8c0.1-0.5,0.2-0.8,0.8-0.7c0.7,0.1,1.5,0,2.2,0c0.4,0,0.5,0,0.4,0.5C30.4,18.7,30.1,21.2,29.8,23.8z"/>
		<path style="fill:#FFFFFF;" d="M31.4,37.4c-1,0-2,0-3,0c-0.4,0-0.5-0.1-0.4-0.4c0.4-2.6,0.7-5.3,1.1-7.9c0.1-0.6,0.2-1.1,0.2-1.7
			c0-0.4,0.2-0.5,0.6-0.5c2,0,3.9,0,5.9,0c0.5,0,0.6,0.1,0.5,0.6c-0.3,2.2-0.6,4.4-0.9,6.6c-0.1,1-0.3,2-0.4,3
			c0,0.3-0.1,0.4-0.4,0.4C33.5,37.4,32.4,37.4,31.4,37.4z"/>
	</g>
</g>
</svg>
