<?xml version="1.0" encoding="utf-8"?>
<!-- Generator: Adobe Illustrator 16.0.0, SVG Export Plug-In . SVG Version: 6.00 Build 0)  -->
<!DOCTYPE svg PUBLIC "-//W3C//DTD SVG 1.1//EN" "http://www.w3.org/Graphics/SVG/1.1/DTD/svg11.dtd">
<svg version="1.1" id="Layer_1" xmlns="http://www.w3.org/2000/svg" xmlns:xlink="http://www.w3.org/1999/xlink" x="0px" y="0px"
	 width="65px" height="65px" viewBox="0 0 65 65" style="enable-background:new 0 0 65 65;" xml:space="preserve">
<g>
	<path style="fill:#ADAFB2;" d="M13.3,57.6c0-17.3,0-34.1,0-51.5c4.7,0,9.1-0.1,13.5,0c3.6,0.1,4.8,2.6,5,5.7c0.2,3.8,0,7.6,0,12.3
		c4.6,0,9-0.1,13.4,0c3.5,0.1,6.4,1.4,6.5,5.4c0.2,9.3,0.1,18.5,0.1,28.1C38.9,57.6,26.4,57.6,13.3,57.6z"/>
	<path style="fill:#CBCDCF;" d="M34.1,21.8c0-4.7,0-8.8,0-14.1c5.4,4.8,10.2,9.1,15.8,14.1C43.9,21.8,39.3,21.8,34.1,21.8z"/>
</g>
</svg>
