<?xml version="1.0" encoding="utf-8"?>
<!-- Generator: Adobe Illustrator 16.0.0, SVG Export Plug-In . SVG Version: 6.00 Build 0)  -->
<!DOCTYPE svg PUBLIC "-//W3C//DTD SVG 1.1//EN" "http://www.w3.org/Graphics/SVG/1.1/DTD/svg11.dtd">
<svg version="1.1" id="Layer_1" xmlns="http://www.w3.org/2000/svg" xmlns:xlink="http://www.w3.org/1999/xlink" x="0px" y="0px"
	 width="64px" height="64px" viewBox="0 0 64 64" style="enable-background:new 0 0 64 64;" xml:space="preserve">
<g>
	<path id="XMLID_1_" style="fill-rule:evenodd;clip-rule:evenodd;fill:#AFAFAF;" d="M3.7,50.5c-0.1-8.5,0-17-0.2-25.4
		c-0.1-3.6,1.5-4.6,4.8-4.6c15.5,0.1,30.9,0.1,46.4,0c3.3,0,4.9,1,4.8,4.6c-0.2,8.5-0.2,17-0.2,25.4c-2.8,2.8-6.5,1.4-9.7,1.5
		C36.1,52.1,22.5,52,8.9,52C7.1,52,5,52.2,3.7,50.5z"/>
	<path style="fill-rule:evenodd;clip-rule:evenodd;fill:#929292;" d="M31.5,18.5c-8.2,0-16.3-0.1-24.5,0.1c-2.9,0.1-3.7-1-3.6-3.7
		c0.1-2.7,0.4-4.6,3.7-4.4c3.2,0.2,6.3,0,9.5,0c1.2,0,2.4-0.1,3.1,1.1c2.3,4,6.1,3.9,10.1,3.9c8.5-0.1,17-0.1,25.5,0
		c1.5,0,4-0.5,3.9,1.8c-0.1,2.1-2.4,1.1-3.7,1.1C47.5,18.6,39.5,18.5,31.5,18.5z"/>
	<path style="fill-rule:evenodd;clip-rule:evenodd;fill:#929292;" d="M3.7,50.5c18.6,0,37.1,0,55.7,0c0.5,2.6-1.1,3-3.2,3
		c-16.4,0-32.8,0-49.2,0C4.8,53.5,3.2,53.1,3.7,50.5z"/>
</g>
</svg>
