<?xml version="1.0" encoding="utf-8"?>
<!-- Generator: Adobe Illustrator 16.0.0, SVG Export Plug-In . SVG Version: 6.00 Build 0)  -->
<!DOCTYPE svg PUBLIC "-//W3C//DTD SVG 1.1//EN" "http://www.w3.org/Graphics/SVG/1.1/DTD/svg11.dtd">
<svg version="1.1" id="Layer_1" xmlns="http://www.w3.org/2000/svg" xmlns:xlink="http://www.w3.org/1999/xlink" x="0px" y="0px"
	 width="64.1px" height="64.1px" viewBox="0 0 64.1 64.1" style="enable-background:new 0 0 64.1 64.1;" xml:space="preserve">
<g>
	<g>
		<path style="fill-rule:evenodd;clip-rule:evenodd;" d="M23.4,12.6c0.1,0.1,0.2,0.2,0.3,0.3c0.4,0.4,0.7,0.8,1.1,1.2
			c0.3,0.3,0.3,0.4,0,0.7c-1.4,1.2-2.7,2.5-3.9,4c-2.6,3.2-3.9,6.9-4.2,11.1c-0.2,3.1-0.1,6.2,0.8,9.3c0.8,3,2.5,5.5,4.5,7.8
			c0.9,1,1.8,1.9,2.8,2.8c0.3,0.2,0.3,0.4,0,0.6c-0.5,0.5-0.9,1.3-1.4,1.4c-0.6,0-1.1-0.8-1.6-1.2c-2.7-2.3-5-4.9-6.6-8.2
			c-1.8-3.8-2.2-7.8-2-11.9c0.3-6.7,3.5-11.9,8.5-16.2c0.5-0.4,1-0.8,1.5-1.3C23.2,12.7,23.3,12.7,23.4,12.6z"/>
		<path style="fill-rule:evenodd;clip-rule:evenodd;" d="M51.1,33.5c0.1,5.2-2.2,10.7-6.9,15.2c-1,1-2.1,1.9-3.2,2.8
			c-0.2,0.2-0.4,0.2-0.5,0c-0.4-0.4-0.7-0.8-1.1-1.2c-0.4-0.3-0.2-0.5,0.1-0.8c1.7-1.5,3.2-3.1,4.6-5c2.1-2.9,3.1-6.1,3.4-9.6
			c0.3-3.3,0.1-6.7-0.8-9.9c-1-3.5-3.1-6.3-5.6-8.8c-0.5-0.5-1.1-1.1-1.7-1.6c-0.2-0.2-0.3-0.3,0-0.6c0.4-0.4,0.8-0.9,1.2-1.3
			c0.2-0.2,0.3-0.2,0.5,0c3.1,2.6,6,5.4,7.8,9C50.5,25,51.1,28.5,51.1,33.5z"/>
	</g>
</g>
</svg>
