<?xml version="1.0" encoding="utf-8"?>
<!-- Generator: Adobe Illustrator 16.0.0, SVG Export Plug-In . SVG Version: 6.00 Build 0)  -->
<!DOCTYPE svg PUBLIC "-//W3C//DTD SVG 1.1//EN" "http://www.w3.org/Graphics/SVG/1.1/DTD/svg11.dtd">
<svg version="1.1" id="Layer_1" xmlns="http://www.w3.org/2000/svg" xmlns:xlink="http://www.w3.org/1999/xlink" x="0px" y="0px"
	 width="65px" height="65px" viewBox="0 0 65 65" style="enable-background:new 0 0 65 65;" xml:space="preserve">
<g>
	<path style="fill-rule:evenodd;clip-rule:evenodd;" d="M11.2,59.6c0-18.6,0-36.8,0-55.6c6.3,0,12.4-0.3,18.5,0.1
		c7,0.4,24,17.1,24.2,23.8C54.2,38.4,54,48.8,54,59.6C39.7,59.6,25.7,59.6,11.2,59.6z M13.3,57.6c13,0,25.6,0,38.5,0
		c0-9.5,0.1-18.8-0.1-28.1c-0.1-4-2.9-5.3-6.5-5.4c-4.4-0.1-8.8,0-13.4,0c0-4.7,0.1-8.5,0-12.3c-0.2-3.1-1.4-5.6-5-5.7
		c-4.4-0.1-8.9,0-13.5,0C13.3,23.5,13.3,40.4,13.3,57.6z M34.1,21.8c5.1,0,9.8,0,15.8,0c-5.6-5-10.4-9.2-15.8-14.1
		C34.1,13.1,34.1,17.1,34.1,21.8z"/>
</g>
</svg>
