<?xml version="1.0" encoding="utf-8"?>
<!-- Generator: Adobe Illustrator 16.0.0, SVG Export Plug-In . SVG Version: 6.00 Build 0)  -->
<!DOCTYPE svg PUBLIC "-//W3C//DTD SVG 1.1//EN" "http://www.w3.org/Graphics/SVG/1.1/DTD/svg11.dtd">
<svg version="1.1" id="Layer_1" xmlns="http://www.w3.org/2000/svg" xmlns:xlink="http://www.w3.org/1999/xlink" x="0px" y="0px"
	 width="64px" height="64px" viewBox="0 0 64 64" style="enable-background:new 0 0 64 64;" xml:space="preserve">
<g>
	<path style="fill-rule:evenodd;clip-rule:evenodd;" d="M31.4,55.5c-8.3,0-16.6-0.1-25,0c-3.6,0.1-5.1-1.2-5-4.9
		c0.1-12.1,0.1-24.3,0-36.4c0-4,1.5-5.9,5.6-5.7c3.3,0.1,6.7,0,10,0c1.3,0,3-0.1,3.6,1.1c2.3,4.5,6.5,3.9,10.4,3.9
		c8.3,0,16.6,0.1,25,0c3.7,0,5.5,1.5,5.5,5.3c-0.1,10.6-0.1,21.3,0,31.9c0.1,3.8-1.7,4.9-5.2,4.8C48.1,55.4,39.7,55.5,31.4,55.5z"/>
	<path style="fill-rule:evenodd;clip-rule:evenodd;fill:#B1B1B1;" d="M3.7,50.5c-0.1-8.5,0-17-0.2-25.4c-0.1-3.6,1.5-4.6,4.8-4.6
		c15.5,0.1,30.9,0.1,46.4,0c3.3,0,4.9,1,4.8,4.6c-0.2,8.5-0.2,17-0.2,25.4c-2.8,2.8-6.5,1.4-9.7,1.5C36.1,52.1,22.5,52,8.9,52
		C7.1,52,5,52.2,3.7,50.5z"/>
	<path style="fill-rule:evenodd;clip-rule:evenodd;fill:#E4E4E4;" d="M31.5,18.5c-8.2,0-16.3-0.1-24.5,0.1c-2.9,0.1-3.7-1-3.6-3.7
		c0.1-2.7,0.4-4.6,3.7-4.4c3.2,0.2,6.3,0,9.5,0c1.2,0,2.4-0.1,3.1,1.1c2.3,4,6.1,3.9,10.1,3.9c8.5-0.1,17-0.1,25.5,0
		c1.5,0,4-0.5,3.9,1.8c-0.1,2.1-2.4,1.1-3.7,1.1C47.5,18.6,39.5,18.5,31.5,18.5z"/>
	<path style="fill-rule:evenodd;clip-rule:evenodd;fill:#989898;" d="M3.7,50.5c18.6,0,37.1,0,55.7,0c0.5,2.6-1.1,3-3.2,3
		c-16.4,0-32.8,0-49.2,0C4.8,53.5,3.2,53.1,3.7,50.5z"/>
</g>
</svg>
